<svg width="69" height="55" viewBox="0 0 69 55" fill="none" xmlns="http://www.w3.org/2000/svg">
<mask id="mask0_54_13627" style="mask-type:luminance" maskUnits="userSpaceOnUse" x="0" y="16" width="39" height="39">
<path d="M26.2507 35.0034C22.2896 35.0034 19.0781 31.7919 19.0781 27.8307V16.6235C8.53956 16.6235 0 25.163 0 35.7015C0 46.2401 8.53956 54.7796 19.0781 54.7796C29.6166 54.7796 38.1561 46.2401 38.1561 35.7015C38.1561 35.4664 38.1488 35.2312 38.1414 35.0034H26.2581H26.2507Z" fill="white"/>
</mask>
<g mask="url(#mask0_54_13627)">
<path d="M19.0781 54.7796C29.6146 54.7796 38.1561 46.2381 38.1561 35.7015C38.1561 25.165 29.6146 16.6235 19.0781 16.6235C8.54154 16.6235 0 25.165 0 35.7015C0 46.2381 8.54154 54.7796 19.0781 54.7796Z" fill="url(#paint0_linear_54_13627)"/>
<g opacity="0.56">
<path d="M19.078 50.4581C10.9426 50.4581 4.32111 43.8366 4.32111 35.7012C4.32111 27.5659 10.9426 20.9444 19.078 20.9444C27.2133 20.9444 33.8348 27.5659 33.8348 35.7012C33.8348 43.8366 27.2133 50.4581 19.078 50.4581ZM19.078 24.8761C13.1105 24.8761 8.25284 29.7338 8.25284 35.7012C8.25284 41.6686 13.1105 46.5264 19.078 46.5264C25.0454 46.5264 29.9031 41.6686 29.9031 35.7012C29.9031 29.7338 25.0454 24.8761 19.078 24.8761Z" fill="#ABEFD6"/>
</g>
</g>
<mask id="mask1_54_13627" style="mask-type:luminance" maskUnits="userSpaceOnUse" x="19" y="0" width="50" height="36">
<path d="M61.8273 0H26.2507C22.2894 0 19.0781 3.2113 19.0781 7.17264V27.8308C19.0781 31.7921 22.2894 35.0034 26.2507 35.0034H61.8273C65.7887 35.0034 69 31.7921 69 27.8308V7.17264C69 3.2113 65.7887 0 61.8273 0Z" fill="white"/>
</mask>
<g mask="url(#mask1_54_13627)">
<g style="mix-blend-mode:screen" opacity="0.7">
<path d="M61.8273 0H26.2507C22.2894 0 19.0781 3.2113 19.0781 7.17264V27.8308C19.0781 31.7921 22.2894 35.0034 26.2507 35.0034H61.8273C65.7887 35.0034 69 31.7921 69 27.8308V7.17264C69 3.2113 65.7887 0 61.8273 0Z" fill="#9256FC"/>
<g style="mix-blend-mode:screen" opacity="0.8">
<path d="M61.8273 0H26.2507C22.2894 0 19.0781 3.2113 19.0781 7.17264V27.8308C19.0781 31.7921 22.2894 35.0034 26.2507 35.0034H61.8273C65.7887 35.0034 69 31.7921 69 27.8308V7.17264C69 3.2113 65.7887 0 61.8273 0Z" fill="white"/>
</g>
</g>
<g style="mix-blend-mode:overlay" opacity="0.5">
<path d="M61.8273 0H26.2507C22.2896 0 19.0781 3.21152 19.0781 7.17264V27.8308C19.0781 31.7919 22.2896 35.0034 26.2507 35.0034H61.8273C65.7885 35.0034 69 31.7919 69 27.8308V7.17264C69 3.21152 65.7885 0 61.8273 0ZM68.684 27.8308C68.684 31.6155 65.6047 34.6874 61.8273 34.6874H26.2507C22.466 34.6874 19.3941 31.6082 19.3941 27.8308V7.17264C19.3941 3.3879 22.4733 0.316014 26.2507 0.316014H61.8273C65.6121 0.316014 68.684 3.39525 68.684 7.17264V27.8308Z" fill="url(#paint1_linear_54_13627)"/>
<g style="mix-blend-mode:screen" opacity="0.8">
<path d="M61.8273 0H26.2507C22.2896 0 19.0781 3.21152 19.0781 7.17264V27.8308C19.0781 31.7919 22.2896 35.0034 26.2507 35.0034H61.8273C65.7885 35.0034 69 31.7919 69 27.8308V7.17264C69 3.21152 65.7885 0 61.8273 0ZM68.684 27.8308C68.684 31.6155 65.6047 34.6874 61.8273 34.6874H26.2507C22.466 34.6874 19.3941 31.6082 19.3941 27.8308V7.17264C19.3941 3.3879 22.4733 0.316014 26.2507 0.316014H61.8273C65.6121 0.316014 68.684 3.39525 68.684 7.17264V27.8308Z" fill="white"/>
</g>
</g>
<path d="M69 8.17944H19.0781V13.1988H69V8.17944Z" fill="#FCFBFF"/>
<path d="M61.7538 21.8046H52.4279C51.4358 21.8046 50.6348 21.0035 50.6348 20.0114C50.6348 19.0193 51.4358 18.2183 52.4279 18.2183H61.7538C62.746 18.2183 63.547 19.0193 63.547 20.0114C63.547 21.0035 62.746 21.8046 61.7538 21.8046Z" fill="#FCFBFF"/>
</g>
<defs>
<linearGradient id="paint0_linear_54_13627" x1="29.668" y1="23.7888" x2="8.22355" y2="47.9156" gradientUnits="userSpaceOnUse">
<stop stop-color="#46C4FF"/>
<stop offset="0.84" stop-color="#58E0A9"/>
</linearGradient>
<linearGradient id="paint1_linear_54_13627" x1="31.5567" y1="29.984" x2="70.3228" y2="-8.78209" gradientUnits="userSpaceOnUse">
<stop stop-color="white" stop-opacity="0.9"/>
<stop offset="0.34" stop-color="white" stop-opacity="0"/>
<stop offset="0.86" stop-color="white" stop-opacity="0.9"/>
</linearGradient>
</defs>
</svg>
