<svg width="69" height="55" viewBox="0 0 69 55" fill="none" xmlns="http://www.w3.org/2000/svg">
<mask id="mask0_54_13689" style="mask-type:luminance" maskUnits="userSpaceOnUse" x="27" y="0" width="42" height="38">
<path d="M48.1737 0C36.67 0 27.3475 8.33725 27.3475 18.6252C27.3475 18.9659 27.3624 19.3066 27.3774 19.6473H31.9266C35.9828 19.6473 39.277 22.5867 39.277 26.2209V35.4734C41.9737 36.6158 44.9915 37.2571 48.1737 37.2571C59.6775 37.2571 69 28.9198 69 18.6319C69 8.34393 59.6775 0.00668701 48.1737 0.00668701V0Z" fill="white"/>
</mask>
<g mask="url(#mask0_54_13689)">
<path d="M68.7302 21.6419C70.589 11.4907 62.8941 1.9139 51.5433 0.251579C40.1925 -1.41074 29.484 5.47085 27.6252 15.6221C25.7664 25.7733 33.4613 35.35 44.8121 37.0123C56.1629 38.6747 66.8714 31.7931 68.7302 21.6419Z" fill="url(#paint0_linear_54_13689)"/>
<path d="M53.2906 24.2702C52.7826 24.2702 52.2672 24.1232 51.834 23.8293L46.7245 20.3287C46.1344 19.9212 45.7833 19.2932 45.7833 18.6252V9.33933C45.7833 8.15688 46.859 7.19489 48.1812 7.19489C49.5033 7.19489 50.579 8.15688 50.579 9.33933V17.5697L54.7547 20.4289C55.808 21.1504 56.0022 22.4932 55.2029 23.4285C54.7323 23.9763 54.0227 24.2702 53.2981 24.2702H53.2906Z" fill="#FFD29F"/>
</g>
<mask id="mask1_54_13689" style="mask-type:luminance" maskUnits="userSpaceOnUse" x="0" y="19" width="40" height="36">
<path d="M7.35044 19.6474H31.9341C35.9903 19.6474 39.2845 22.5935 39.2845 26.221V48.2065C39.2845 51.834 35.9903 54.7801 31.9341 54.7801H7.35044C3.29425 54.7801 0 51.834 0 48.2065V26.221C0 22.5935 3.29425 19.6474 7.35044 19.6474Z" fill="white"/>
</mask>
<g mask="url(#mask1_54_13689)">
<g style="mix-blend-mode:screen" opacity="0.7">
<path d="M7.35044 19.6474H31.9341C35.9903 19.6474 39.2845 22.5935 39.2845 26.221V48.2065C39.2845 51.834 35.9903 54.7801 31.9341 54.7801H7.35044C3.29425 54.7801 0 51.834 0 48.2065V26.221C0 22.5935 3.29425 19.6474 7.35044 19.6474Z" fill="#9256FC"/>
<g style="mix-blend-mode:screen" opacity="0.8">
<path d="M7.35044 19.6474H31.9341C35.9903 19.6474 39.2845 22.5935 39.2845 26.221V48.2065C39.2845 51.834 35.9903 54.7801 31.9341 54.7801H7.35044C3.29425 54.7801 0 51.834 0 48.2065V26.221C0 22.5935 3.29425 19.6474 7.35044 19.6474Z" fill="white"/>
</g>
</g>
<g style="mix-blend-mode:overlay" opacity="0.5">
<path d="M31.9341 19.6474H7.35044C3.29425 19.6474 0 22.5868 0 26.221V48.2065C0 51.834 3.28678 54.7801 7.35044 54.7801H31.9341C35.9903 54.7801 39.2845 51.8407 39.2845 48.2065V26.221C39.2845 22.5935 35.9977 19.6474 31.9341 19.6474ZM38.9633 48.1998C38.9633 51.667 35.811 54.4862 31.9341 54.4862H7.35044C3.47353 54.4862 0.321203 51.667 0.321203 48.1998V26.2143C0.321203 22.7471 3.47353 19.928 7.35044 19.928H31.9341C35.811 19.928 38.9633 22.7471 38.9633 26.2143V48.1998Z" fill="url(#paint1_linear_54_13689)"/>
<g style="mix-blend-mode:screen" opacity="0.8">
<path d="M31.9341 19.6474H7.35044C3.29425 19.6474 0 22.5868 0 26.221V48.2065C0 51.834 3.28678 54.7801 7.35044 54.7801H31.9341C35.9903 54.7801 39.2845 51.8407 39.2845 48.2065V26.221C39.2845 22.5935 35.9977 19.6474 31.9341 19.6474ZM38.9633 48.1998C38.9633 51.667 35.811 54.4862 31.9341 54.4862H7.35044C3.47353 54.4862 0.321203 51.667 0.321203 48.1998V26.2143C0.321203 22.7471 3.47353 19.928 7.35044 19.928H31.9341C35.811 19.928 38.9633 22.7471 38.9633 26.2143V48.1998Z" fill="white"/>
</g>
</g>
<path d="M9.58391 40.9515H7.58944C5.834 40.9515 4.40723 39.6755 4.40723 38.1056V36.3219C4.40723 34.752 5.834 33.476 7.58944 33.476H9.58391C11.3394 33.476 12.7661 34.752 12.7661 36.3219V38.1056C12.7661 39.6755 11.3394 40.9515 9.58391 40.9515ZM23.8217 38.1056V36.3219C23.8217 34.752 22.3949 33.476 20.6395 33.476H18.645C16.8895 33.476 15.4628 34.752 15.4628 36.3219V38.1056C15.4628 39.6755 16.8895 40.9515 18.645 40.9515H20.6395C22.3949 40.9515 23.8217 39.6755 23.8217 38.1056ZM34.8772 38.1056V36.3219C34.8772 34.752 33.4504 33.476 31.695 33.476H29.7005C27.9451 33.476 26.5183 34.752 26.5183 36.3219V38.1056C26.5183 39.6755 27.9451 40.9515 29.7005 40.9515H31.695C33.4504 40.9515 34.8772 39.6755 34.8772 38.1056ZM23.8217 47.9927V46.209C23.8217 44.6391 22.3949 43.3631 20.6395 43.3631H18.645C16.8895 43.3631 15.4628 44.6391 15.4628 46.209V47.9927C15.4628 49.5626 16.8895 50.8386 18.645 50.8386H20.6395C22.3949 50.8386 23.8217 49.5626 23.8217 47.9927ZM34.8772 47.9927V46.209C34.8772 44.6391 33.4504 43.3631 31.695 43.3631H29.7005C27.9451 43.3631 26.5183 44.6391 26.5183 46.209V47.9927C26.5183 49.5626 27.9451 50.8386 29.7005 50.8386H31.695C33.4504 50.8386 34.8772 49.5626 34.8772 47.9927ZM7.58944 50.8386H9.58391C11.3394 50.8386 12.7661 49.5626 12.7661 47.9927V46.209C12.7661 44.6391 11.3394 43.3631 9.58391 43.3631H7.58944C5.834 43.3631 4.40723 44.6391 4.40723 46.209V47.9927C4.40723 49.5626 5.834 50.8386 7.58944 50.8386Z" fill="#FCFBFF"/>
</g>
<defs>
<linearGradient id="paint0_linear_54_13689" x1="68.7324" y1="21.6404" x2="27.8939" y2="14.1626" gradientUnits="userSpaceOnUse">
<stop stop-color="#FFDC4F"/>
<stop offset="0.25" stop-color="#FFBD3D"/>
<stop offset="0.8" stop-color="#FF7011"/>
<stop offset="1" stop-color="#FF5300"/>
</linearGradient>
<linearGradient id="paint1_linear_54_13689" x1="3.95161" y1="54.8068" x2="31.4464" y2="16.2464" gradientUnits="userSpaceOnUse">
<stop stop-color="white" stop-opacity="0.9"/>
<stop offset="0.34" stop-color="white" stop-opacity="0"/>
<stop offset="0.86" stop-color="white" stop-opacity="0.9"/>
</linearGradient>
</defs>
</svg>
