<svg width="70" height="55" viewBox="0 0 70 55" fill="none" xmlns="http://www.w3.org/2000/svg">
<path d="M48.4342 32.203V48.4498H21.5696V32.203C21.5696 24.9445 27.5856 19.0579 35.0038 19.0579C42.422 19.0579 48.438 24.9445 48.438 32.203H48.4342Z" fill="url(#paint0_linear_54_13659)"/>
<path d="M33.4035 24.3892C29.1249 24.3892 25.6577 27.7818 25.6577 31.9684C25.6577 36.155 29.1249 39.5475 33.4035 39.5475V24.3855V24.3892Z" fill="#FF9A17"/>
<path d="M36.5964 24.3892C40.8751 24.3892 44.3423 27.7818 44.3423 31.9684C44.3423 36.155 40.8751 39.5475 36.5964 39.5475V24.3855V24.3892Z" fill="#FF9A17"/>
<path d="M52.4234 54.4072H17.5767C15.9764 54.4072 14.7915 52.9458 15.1573 51.421L16.7689 44.6807C17.0318 43.5809 18.0339 42.8018 19.1883 42.8018H50.8117C51.9662 42.8018 52.9682 43.5809 53.2311 44.6807L54.8427 51.421C55.2085 52.9458 54.0236 54.4072 52.4234 54.4072Z" fill="black"/>
<path d="M33.4035 24.3892C29.1249 24.3892 25.6577 27.7818 25.6577 31.9684C25.6577 36.155 29.1249 39.5475 33.4035 39.5475V24.3855V24.3892Z" fill="url(#paint1_linear_54_13659)"/>
<path d="M36.5964 24.3892C40.8751 24.3892 44.3423 27.7818 44.3423 31.9684C44.3423 36.155 40.8751 39.5475 36.5964 39.5475V24.3855V24.3892Z" fill="url(#paint2_linear_54_13659)"/>
<path d="M52.4234 54.4072H17.5767C15.9764 54.4072 14.7915 52.9458 15.1573 51.421L16.7689 44.6807C17.0318 43.5809 18.0339 42.8018 19.1883 42.8018H50.8117C51.9662 42.8018 52.9682 43.5809 53.2311 44.6807L54.8427 51.421C55.2085 52.9458 54.0236 54.4072 52.4234 54.4072Z" fill="url(#paint3_linear_54_13659)"/>
<path d="M50.8116 42.8019C51.966 42.8019 52.968 43.581 53.2309 44.6808L54.8426 51.4211C55.2084 52.9459 54.0234 54.4073 52.4232 54.4073H17.5765C15.9763 54.4073 14.7914 52.9459 15.1571 51.4211L16.7688 44.6808C17.0317 43.581 18.0337 42.8019 19.1882 42.8019H50.8116ZM50.8116 42.4291H19.1882C17.8508 42.4291 16.7002 43.3201 16.3954 44.5951L14.7837 51.3354C14.5818 52.1742 14.7837 53.0428 15.3286 53.7176C15.8772 54.3924 16.6964 54.7801 17.5765 54.7801H52.4232C53.3033 54.7801 54.1225 54.3924 54.6711 53.7176C55.2198 53.0428 55.4179 52.1742 55.216 51.3354L53.6043 44.5951C53.2995 43.3201 52.1527 42.4291 50.8116 42.4291Z" fill="url(#paint4_linear_54_13659)"/>
<g style="mix-blend-mode:soft-light">
<path d="M18.6738 43.5846H51.3259C52.0117 43.5846 52.6366 43.8568 53.1052 44.2967C52.7242 43.4057 51.8289 42.8018 50.8116 42.8018H19.1882C18.1747 42.8018 17.2755 43.402 16.8945 44.2967C17.3594 43.8568 17.988 43.5846 18.6738 43.5846Z" fill="white"/>
</g>
<path d="M17.1575 43.864C21.379 45.2471 24.6862 46.7085 24.5414 47.1298C24.3966 47.551 20.8571 46.7719 16.6355 45.3888C12.414 44.0057 9.10687 42.5443 9.25165 42.123C9.39643 41.7017 12.936 42.4809 17.1575 43.864Z" fill="url(#paint5_radial_54_13659)"/>
<path style="mix-blend-mode:hard-light" d="M16.9859 44.3639C17.7746 44.6211 18.3766 44.9492 18.3271 45.0983C18.2776 45.2437 17.5956 45.1543 16.8069 44.8933C16.0182 44.6361 15.4162 44.308 15.4657 44.1589C15.5153 44.0135 16.1973 44.1029 16.9859 44.3639Z" fill="url(#paint6_radial_54_13659)"/>
<path d="M16.026 44.3415C17.409 40.2966 18.9216 37.1464 19.4017 37.303C19.8818 37.4595 19.1502 40.867 17.7672 44.9119C16.3841 48.9568 14.8716 52.107 14.3915 51.9505C13.9114 51.7939 14.6429 48.3864 16.026 44.3415Z" fill="url(#paint7_radial_54_13659)"/>
<path style="mix-blend-mode:hard-light" d="M16.5936 44.5279C16.8565 43.7562 17.2071 43.1709 17.3747 43.2268C17.5423 43.2828 17.4623 43.9538 17.1994 44.7255C16.9365 45.4972 16.586 46.0825 16.4184 46.0266C16.2507 45.9707 16.3307 45.2996 16.5936 44.5279Z" fill="url(#paint8_radial_54_13659)"/>
<path d="M17.1575 43.864C21.379 45.2471 24.6862 46.7085 24.5414 47.1298C24.3966 47.551 20.8571 46.7719 16.6355 45.3888C12.414 44.0057 9.10687 42.5443 9.25165 42.123C9.39643 41.7017 12.936 42.4809 17.1575 43.864Z" fill="url(#paint9_radial_54_13659)"/>
<path style="mix-blend-mode:hard-light" d="M16.9859 44.3639C17.7746 44.6211 18.3766 44.9492 18.3271 45.0983C18.2776 45.2437 17.5956 45.1543 16.8069 44.8933C16.0182 44.6361 15.4162 44.308 15.4657 44.1589C15.5153 44.0135 16.1973 44.1029 16.9859 44.3639Z" fill="url(#paint10_radial_54_13659)"/>
<path d="M16.026 44.3415C17.409 40.2966 18.9216 37.1464 19.4017 37.303C19.8818 37.4595 19.1502 40.867 17.7672 44.9119C16.3841 48.9568 14.8716 52.107 14.3915 51.9505C13.9114 51.7939 14.6429 48.3864 16.026 44.3415Z" fill="url(#paint11_radial_54_13659)"/>
<path style="mix-blend-mode:hard-light" d="M16.5936 44.5279C16.8565 43.7562 17.2071 43.1709 17.3747 43.2268C17.5423 43.2828 17.4623 43.9538 17.1994 44.7255C16.9365 45.4972 16.586 46.0825 16.4184 46.0266C16.2507 45.9707 16.3307 45.2996 16.5936 44.5279Z" fill="url(#paint12_radial_54_13659)"/>
<path d="M36.3868 12.7274V1.72969C36.3868 0.980353 35.7658 0.372681 34.9999 0.372681C34.2341 0.372681 33.6131 0.980353 33.6131 1.72969V12.7274C33.6131 13.4768 34.2341 14.0845 34.9999 14.0845C35.7658 14.0845 36.3868 13.4768 36.3868 12.7274ZM20.7846 19.848C21.3257 19.3186 21.3257 18.4575 20.7846 17.9281L12.8369 10.1514C12.2959 9.62197 11.4157 9.62197 10.8747 10.1514C10.3337 10.6807 10.3337 11.5419 10.8747 12.0713L18.8225 19.848C19.093 20.1127 19.4473 20.2469 19.8055 20.2469C20.1636 20.2469 20.5141 20.1127 20.7885 19.848H20.7846ZM14.8981 33.7574C14.8981 33.008 14.2771 32.4004 13.5113 32.4004H2.27162C1.5058 32.4004 0.884766 33.008 0.884766 33.7574C0.884766 34.5067 1.5058 35.1144 2.27162 35.1144H13.5113C14.2771 35.1144 14.8981 34.5067 14.8981 33.7574ZM69.1189 33.7574C69.1189 33.008 68.4979 32.4004 67.7321 32.4004H56.4924C55.7266 32.4004 55.1056 33.008 55.1056 33.7574C55.1056 34.5067 55.7266 35.1144 56.4924 35.1144H67.7321C68.4979 35.1144 69.1189 34.5067 69.1189 33.7574ZM51.1774 19.848L59.1252 12.0713C59.6662 11.5419 59.6662 10.6807 59.1252 10.1514C58.5841 9.62197 57.704 9.62197 57.163 10.1514L49.2152 17.9281C48.6742 18.4575 48.6742 19.3186 49.2152 19.848C49.4857 20.1127 49.8401 20.2469 50.1982 20.2469C50.5564 20.2469 50.9069 20.1127 51.1812 19.848H51.1774Z" fill="url(#paint13_linear_54_13659)"/>
<path d="M34.9999 0.372866C35.7658 0.372866 36.3868 0.980538 36.3868 1.72988V12.7276C36.3868 13.477 35.7658 14.0846 34.9999 14.0846C34.2341 14.0846 33.6131 13.477 33.6131 12.7276V1.72988C33.6131 0.980538 34.2341 0.372866 34.9999 0.372866ZM34.9999 6.10352e-05C34.0246 6.10352e-05 33.2321 0.775495 33.2321 1.72988V12.7276C33.2321 13.682 34.0246 14.4574 34.9999 14.4574C35.9753 14.4574 36.7678 13.682 36.7678 12.7276V1.72988C36.7678 0.775495 35.9753 6.10352e-05 34.9999 6.10352e-05Z" fill="url(#paint14_linear_54_13659)"/>
<path d="M11.8538 9.75293C12.2081 9.75293 12.5625 9.88714 12.8368 10.1518L20.7846 17.9285C21.3256 18.4579 21.3256 19.3191 20.7846 19.8485C20.514 20.1132 20.1597 20.2474 19.8016 20.2474C19.4434 20.2474 19.0929 20.1132 18.8186 19.8485L10.8708 12.0718C10.3298 11.5424 10.3298 10.6812 10.8708 10.1518C11.1413 9.88714 11.4957 9.75293 11.8538 9.75293ZM11.8538 9.38013C11.3814 9.38013 10.9356 9.55907 10.6041 9.88714C10.2688 10.2152 10.0859 10.6477 10.0859 11.1099C10.0859 11.5722 10.2688 12.0084 10.6041 12.3327L18.5519 20.1095C18.8871 20.4375 19.3291 20.6165 19.8016 20.6165C20.274 20.6165 20.7198 20.4375 21.0513 20.1095C21.3865 19.7814 21.5694 19.3489 21.5694 18.8867C21.5694 18.4244 21.3865 17.9882 21.0513 17.6639L13.1035 9.88714C12.7682 9.55907 12.3262 9.38013 11.8538 9.38013Z" fill="url(#paint15_linear_54_13659)"/>
<path d="M13.5075 32.397C14.2733 32.397 14.8944 33.0046 14.8944 33.754C14.8944 34.5033 14.2733 35.111 13.5075 35.111H2.26786C1.50204 35.111 0.881005 34.5033 0.881005 33.754C0.881005 33.0046 1.50204 32.397 2.26786 32.397H13.5075ZM13.5075 32.0242H2.26786C1.29249 32.0242 0.5 32.7996 0.5 33.754C0.5 34.7084 1.29249 35.4838 2.26786 35.4838H13.5075C14.4829 35.4838 15.2754 34.7084 15.2754 33.754C15.2754 32.7996 14.4829 32.0242 13.5075 32.0242Z" fill="url(#paint16_linear_54_13659)"/>
<path d="M67.7321 32.397C68.4979 32.397 69.119 33.0046 69.119 33.754C69.119 34.5033 68.4979 35.111 67.7321 35.111H56.4925C55.7267 35.111 55.1056 34.5033 55.1056 33.754C55.1056 33.0046 55.7267 32.397 56.4925 32.397H67.7321ZM67.7321 32.0242H56.4925C55.5171 32.0242 54.7246 32.7996 54.7246 33.754C54.7246 34.7084 55.5171 35.4838 56.4925 35.4838H67.7321C68.7075 35.4838 69.5 34.7084 69.5 33.754C69.5 32.7996 68.7075 32.0242 67.7321 32.0242Z" fill="url(#paint17_linear_54_13659)"/>
<path d="M58.146 9.75293C58.5004 9.75293 58.8547 9.88714 59.129 10.1518C59.6701 10.6812 59.6701 11.5424 59.129 12.0718L51.1813 19.8485C50.9108 20.1132 50.5564 20.2474 50.1983 20.2474C49.8401 20.2474 49.4896 20.1132 49.2153 19.8485C48.6743 19.3191 48.6743 18.4579 49.2153 17.9285L57.163 10.1518C57.4336 9.88714 57.7879 9.75293 58.146 9.75293ZM58.146 9.38013C57.6736 9.38013 57.2278 9.55907 56.8963 9.88714L48.9486 17.6639C48.6133 17.9919 48.4304 18.4244 48.4304 18.8867C48.4304 19.3489 48.6133 19.7851 48.9486 20.1095C49.2839 20.4375 49.7258 20.6165 50.1983 20.6165C50.6707 20.6165 51.1165 20.4375 51.448 20.1095L59.3957 12.3327C59.731 12.0047 59.9139 11.5722 59.9139 11.1099C59.9139 10.6477 59.731 10.2115 59.3957 9.88714C59.0605 9.55907 58.6185 9.38013 58.146 9.38013Z" fill="url(#paint18_linear_54_13659)"/>
<defs>
<linearGradient id="paint0_linear_54_13659" x1="35" y1="19.0616" x2="35" y2="48.4535" gradientUnits="userSpaceOnUse">
<stop stop-color="#FFBC00"/>
<stop offset="0.46" stop-color="#FF9A17"/>
<stop offset="0.55" stop-color="#FF911B"/>
<stop offset="0.69" stop-color="#FF7B26"/>
<stop offset="0.87" stop-color="#FF5639"/>
<stop offset="1" stop-color="#FF3849"/>
</linearGradient>
<linearGradient id="paint1_linear_54_13659" x1="29.531" y1="39.5482" x2="29.531" y2="24.386" gradientUnits="userSpaceOnUse">
<stop stop-color="#FFDC4F"/>
<stop offset="0.25" stop-color="#FFBD3D"/>
<stop offset="0.8" stop-color="#FF7011"/>
<stop offset="1" stop-color="#FF5300"/>
</linearGradient>
<linearGradient id="paint2_linear_54_13659" x1="40.4697" y1="39.5482" x2="40.4697" y2="24.386" gradientUnits="userSpaceOnUse">
<stop stop-color="#FFDC4F"/>
<stop offset="0.25" stop-color="#FFBD3D"/>
<stop offset="0.8" stop-color="#FF7011"/>
<stop offset="1" stop-color="#FF5300"/>
</linearGradient>
<linearGradient id="paint3_linear_54_13659" x1="35" y1="42.4439" x2="35" y2="54.0493" gradientUnits="userSpaceOnUse">
<stop stop-color="white" stop-opacity="0.9"/>
<stop offset="0.04" stop-color="white" stop-opacity="0.84"/>
<stop offset="0.17" stop-color="white" stop-opacity="0.69"/>
<stop offset="0.28" stop-color="white" stop-opacity="0.59"/>
<stop offset="0.38" stop-color="white" stop-opacity="0.52"/>
<stop offset="0.46" stop-color="white" stop-opacity="0.5"/>
<stop offset="0.55" stop-color="#FDFDFD" stop-opacity="0.46"/>
<stop offset="0.71" stop-color="#F8F8F8" stop-opacity="0.35"/>
<stop offset="0.92" stop-color="#F1F1F1" stop-opacity="0.17"/>
<stop offset="0.99" stop-color="#EFEFEF" stop-opacity="0.1"/>
</linearGradient>
<linearGradient id="paint4_linear_54_13659" x1="34.9999" y1="54.7801" x2="34.9999" y2="42.4291" gradientUnits="userSpaceOnUse">
<stop stop-color="white" stop-opacity="0.9"/>
<stop offset="0.03" stop-color="white" stop-opacity="0.83"/>
<stop offset="0.11" stop-color="white" stop-opacity="0.68"/>
<stop offset="0.17" stop-color="white" stop-opacity="0.58"/>
<stop offset="0.23" stop-color="white" stop-opacity="0.52"/>
<stop offset="0.28" stop-color="white" stop-opacity="0.5"/>
<stop offset="0.46" stop-color="#FDFDFD" stop-opacity="0.48"/>
<stop offset="0.67" stop-color="#F9F9F9" stop-opacity="0.43"/>
<stop offset="0.89" stop-color="#F3F3F3" stop-opacity="0.35"/>
<stop offset="1" stop-color="#EFEFEF" stop-opacity="0.3"/>
</linearGradient>
<radialGradient id="paint5_radial_54_13659" cx="0" cy="0" r="1" gradientUnits="userSpaceOnUse" gradientTransform="translate(24.0825 18.1881) rotate(-71.1115) scale(0.811434 8.03854)">
<stop stop-color="white"/>
<stop offset="0.05" stop-color="white" stop-opacity="0.89"/>
<stop offset="0.15" stop-color="white" stop-opacity="0.69"/>
<stop offset="0.26" stop-color="white" stop-opacity="0.5"/>
<stop offset="0.37" stop-color="white" stop-opacity="0.35"/>
<stop offset="0.48" stop-color="white" stop-opacity="0.22"/>
<stop offset="0.6" stop-color="white" stop-opacity="0.12"/>
<stop offset="0.72" stop-color="white" stop-opacity="0.05"/>
<stop offset="0.85" stop-color="white" stop-opacity="0.01"/>
<stop offset="1" stop-color="white" stop-opacity="0"/>
</radialGradient>
<radialGradient id="paint6_radial_54_13659" cx="0" cy="0" r="1" gradientUnits="userSpaceOnUse" gradientTransform="translate(25.635 18.6865) rotate(-71.1114) scale(0.281126 1.50541)">
<stop stop-color="white"/>
<stop offset="0.05" stop-color="white" stop-opacity="0.89"/>
<stop offset="0.15" stop-color="white" stop-opacity="0.69"/>
<stop offset="0.26" stop-color="white" stop-opacity="0.5"/>
<stop offset="0.37" stop-color="white" stop-opacity="0.35"/>
<stop offset="0.48" stop-color="white" stop-opacity="0.22"/>
<stop offset="0.6" stop-color="white" stop-opacity="0.12"/>
<stop offset="0.72" stop-color="white" stop-opacity="0.05"/>
<stop offset="0.85" stop-color="white" stop-opacity="0.01"/>
<stop offset="1" stop-color="white" stop-opacity="0"/>
</radialGradient>
<radialGradient id="paint7_radial_54_13659" cx="0" cy="0" r="1" gradientUnits="userSpaceOnUse" gradientTransform="translate(24.6957 49.8602) rotate(-161.872) scale(0.912563 7.72929)">
<stop stop-color="white"/>
<stop offset="0.05" stop-color="white" stop-opacity="0.89"/>
<stop offset="0.15" stop-color="white" stop-opacity="0.69"/>
<stop offset="0.26" stop-color="white" stop-opacity="0.5"/>
<stop offset="0.37" stop-color="white" stop-opacity="0.35"/>
<stop offset="0.48" stop-color="white" stop-opacity="0.22"/>
<stop offset="0.6" stop-color="white" stop-opacity="0.12"/>
<stop offset="0.72" stop-color="white" stop-opacity="0.05"/>
<stop offset="0.85" stop-color="white" stop-opacity="0.01"/>
<stop offset="1" stop-color="white" stop-opacity="0"/>
</radialGradient>
<radialGradient id="paint8_radial_54_13659" cx="0" cy="0" r="1" gradientUnits="userSpaceOnUse" gradientTransform="translate(25.6001 47.2964) rotate(-161.872) scale(0.316163 1.47948)">
<stop stop-color="white"/>
<stop offset="0.05" stop-color="white" stop-opacity="0.89"/>
<stop offset="0.15" stop-color="white" stop-opacity="0.69"/>
<stop offset="0.26" stop-color="white" stop-opacity="0.5"/>
<stop offset="0.37" stop-color="white" stop-opacity="0.35"/>
<stop offset="0.48" stop-color="white" stop-opacity="0.22"/>
<stop offset="0.6" stop-color="white" stop-opacity="0.12"/>
<stop offset="0.72" stop-color="white" stop-opacity="0.05"/>
<stop offset="0.85" stop-color="white" stop-opacity="0.01"/>
<stop offset="1" stop-color="white" stop-opacity="0"/>
</radialGradient>
<radialGradient id="paint9_radial_54_13659" cx="0" cy="0" r="1" gradientUnits="userSpaceOnUse" gradientTransform="translate(24.0825 18.1881) rotate(-71.1115) scale(0.811434 8.03854)">
<stop stop-color="white"/>
<stop offset="0.05" stop-color="white" stop-opacity="0.89"/>
<stop offset="0.15" stop-color="white" stop-opacity="0.69"/>
<stop offset="0.26" stop-color="white" stop-opacity="0.5"/>
<stop offset="0.37" stop-color="white" stop-opacity="0.35"/>
<stop offset="0.48" stop-color="white" stop-opacity="0.22"/>
<stop offset="0.6" stop-color="white" stop-opacity="0.12"/>
<stop offset="0.72" stop-color="white" stop-opacity="0.05"/>
<stop offset="0.85" stop-color="white" stop-opacity="0.01"/>
<stop offset="1" stop-color="white" stop-opacity="0"/>
</radialGradient>
<radialGradient id="paint10_radial_54_13659" cx="0" cy="0" r="1" gradientUnits="userSpaceOnUse" gradientTransform="translate(25.635 18.6865) rotate(-71.1114) scale(0.281126 1.50541)">
<stop stop-color="white"/>
<stop offset="0.05" stop-color="white" stop-opacity="0.89"/>
<stop offset="0.15" stop-color="white" stop-opacity="0.69"/>
<stop offset="0.26" stop-color="white" stop-opacity="0.5"/>
<stop offset="0.37" stop-color="white" stop-opacity="0.35"/>
<stop offset="0.48" stop-color="white" stop-opacity="0.22"/>
<stop offset="0.6" stop-color="white" stop-opacity="0.12"/>
<stop offset="0.72" stop-color="white" stop-opacity="0.05"/>
<stop offset="0.85" stop-color="white" stop-opacity="0.01"/>
<stop offset="1" stop-color="white" stop-opacity="0"/>
</radialGradient>
<radialGradient id="paint11_radial_54_13659" cx="0" cy="0" r="1" gradientUnits="userSpaceOnUse" gradientTransform="translate(24.6957 49.8602) rotate(-161.872) scale(0.912563 7.72929)">
<stop stop-color="white"/>
<stop offset="0.05" stop-color="white" stop-opacity="0.89"/>
<stop offset="0.15" stop-color="white" stop-opacity="0.69"/>
<stop offset="0.26" stop-color="white" stop-opacity="0.5"/>
<stop offset="0.37" stop-color="white" stop-opacity="0.35"/>
<stop offset="0.48" stop-color="white" stop-opacity="0.22"/>
<stop offset="0.6" stop-color="white" stop-opacity="0.12"/>
<stop offset="0.72" stop-color="white" stop-opacity="0.05"/>
<stop offset="0.85" stop-color="white" stop-opacity="0.01"/>
<stop offset="1" stop-color="white" stop-opacity="0"/>
</radialGradient>
<radialGradient id="paint12_radial_54_13659" cx="0" cy="0" r="1" gradientUnits="userSpaceOnUse" gradientTransform="translate(25.6001 47.2964) rotate(-161.872) scale(0.316163 1.47948)">
<stop stop-color="white"/>
<stop offset="0.05" stop-color="white" stop-opacity="0.89"/>
<stop offset="0.15" stop-color="white" stop-opacity="0.69"/>
<stop offset="0.26" stop-color="white" stop-opacity="0.5"/>
<stop offset="0.37" stop-color="white" stop-opacity="0.35"/>
<stop offset="0.48" stop-color="white" stop-opacity="0.22"/>
<stop offset="0.6" stop-color="white" stop-opacity="0.12"/>
<stop offset="0.72" stop-color="white" stop-opacity="0.05"/>
<stop offset="0.85" stop-color="white" stop-opacity="0.01"/>
<stop offset="1" stop-color="white" stop-opacity="0"/>
</radialGradient>
<linearGradient id="paint13_linear_54_13659" x1="34.9999" y1="-11.5161" x2="34.9999" y2="23.2256" gradientUnits="userSpaceOnUse">
<stop stop-color="#EFEFEF" stop-opacity="0.1"/>
<stop offset="0.08" stop-color="#F1F1F1" stop-opacity="0.17"/>
<stop offset="0.29" stop-color="#F8F8F8" stop-opacity="0.35"/>
<stop offset="0.45" stop-color="#FDFDFD" stop-opacity="0.46"/>
<stop offset="0.54" stop-color="white" stop-opacity="0.5"/>
<stop offset="0.62" stop-color="white" stop-opacity="0.52"/>
<stop offset="0.72" stop-color="white" stop-opacity="0.59"/>
<stop offset="0.83" stop-color="white" stop-opacity="0.69"/>
<stop offset="0.96" stop-color="white" stop-opacity="0.84"/>
<stop offset="1" stop-color="white" stop-opacity="0.9"/>
</linearGradient>
<linearGradient id="paint14_linear_54_13659" x1="34.9999" y1="14.4574" x2="34.9999" y2="6.10352e-05" gradientUnits="userSpaceOnUse">
<stop stop-color="white" stop-opacity="0.9"/>
<stop offset="0.03" stop-color="white" stop-opacity="0.83"/>
<stop offset="0.11" stop-color="white" stop-opacity="0.68"/>
<stop offset="0.17" stop-color="white" stop-opacity="0.58"/>
<stop offset="0.23" stop-color="white" stop-opacity="0.52"/>
<stop offset="0.28" stop-color="white" stop-opacity="0.5"/>
<stop offset="0.46" stop-color="#FDFDFD" stop-opacity="0.48"/>
<stop offset="0.67" stop-color="#F9F9F9" stop-opacity="0.43"/>
<stop offset="0.89" stop-color="#F3F3F3" stop-opacity="0.35"/>
<stop offset="1" stop-color="#EFEFEF" stop-opacity="0.3"/>
</linearGradient>
<linearGradient id="paint15_linear_54_13659" x1="15.8277" y1="20.6165" x2="15.8277" y2="9.38013" gradientUnits="userSpaceOnUse">
<stop stop-color="white" stop-opacity="0.9"/>
<stop offset="0.03" stop-color="white" stop-opacity="0.83"/>
<stop offset="0.11" stop-color="white" stop-opacity="0.68"/>
<stop offset="0.17" stop-color="white" stop-opacity="0.58"/>
<stop offset="0.23" stop-color="white" stop-opacity="0.52"/>
<stop offset="0.28" stop-color="white" stop-opacity="0.5"/>
<stop offset="0.46" stop-color="#FDFDFD" stop-opacity="0.48"/>
<stop offset="0.67" stop-color="#F9F9F9" stop-opacity="0.43"/>
<stop offset="0.89" stop-color="#F3F3F3" stop-opacity="0.35"/>
<stop offset="1" stop-color="#EFEFEF" stop-opacity="0.3"/>
</linearGradient>
<linearGradient id="paint16_linear_54_13659" x1="7.88768" y1="35.4875" x2="7.88768" y2="32.0242" gradientUnits="userSpaceOnUse">
<stop stop-color="white" stop-opacity="0.9"/>
<stop offset="0.03" stop-color="white" stop-opacity="0.83"/>
<stop offset="0.11" stop-color="white" stop-opacity="0.68"/>
<stop offset="0.17" stop-color="white" stop-opacity="0.58"/>
<stop offset="0.23" stop-color="white" stop-opacity="0.52"/>
<stop offset="0.28" stop-color="white" stop-opacity="0.5"/>
<stop offset="0.46" stop-color="#FDFDFD" stop-opacity="0.48"/>
<stop offset="0.67" stop-color="#F9F9F9" stop-opacity="0.43"/>
<stop offset="0.89" stop-color="#F3F3F3" stop-opacity="0.35"/>
<stop offset="1" stop-color="#EFEFEF" stop-opacity="0.3"/>
</linearGradient>
<linearGradient id="paint17_linear_54_13659" x1="62.1123" y1="35.4875" x2="62.1123" y2="32.0242" gradientUnits="userSpaceOnUse">
<stop stop-color="white" stop-opacity="0.9"/>
<stop offset="0.03" stop-color="white" stop-opacity="0.83"/>
<stop offset="0.11" stop-color="white" stop-opacity="0.68"/>
<stop offset="0.17" stop-color="white" stop-opacity="0.58"/>
<stop offset="0.23" stop-color="white" stop-opacity="0.52"/>
<stop offset="0.28" stop-color="white" stop-opacity="0.5"/>
<stop offset="0.46" stop-color="#FDFDFD" stop-opacity="0.48"/>
<stop offset="0.67" stop-color="#F9F9F9" stop-opacity="0.43"/>
<stop offset="0.89" stop-color="#F3F3F3" stop-opacity="0.35"/>
<stop offset="1" stop-color="#EFEFEF" stop-opacity="0.3"/>
</linearGradient>
<linearGradient id="paint18_linear_54_13659" x1="54.1684" y1="20.6165" x2="54.1684" y2="9.38013" gradientUnits="userSpaceOnUse">
<stop stop-color="white" stop-opacity="0.9"/>
<stop offset="0.03" stop-color="white" stop-opacity="0.83"/>
<stop offset="0.11" stop-color="white" stop-opacity="0.68"/>
<stop offset="0.17" stop-color="white" stop-opacity="0.58"/>
<stop offset="0.23" stop-color="white" stop-opacity="0.52"/>
<stop offset="0.28" stop-color="white" stop-opacity="0.5"/>
<stop offset="0.46" stop-color="#FDFDFD" stop-opacity="0.48"/>
<stop offset="0.67" stop-color="#F9F9F9" stop-opacity="0.43"/>
<stop offset="0.89" stop-color="#F3F3F3" stop-opacity="0.35"/>
<stop offset="1" stop-color="#EFEFEF" stop-opacity="0.3"/>
</linearGradient>
</defs>
</svg>
