<svg width="427" height="882" viewBox="0 0 427 882" fill="none" xmlns="http://www.w3.org/2000/svg">
<path d="M29.7623 772.03C4.85247 767.097 -0.439929 735.716 0.027597 720.642V0H426.972V720.642C427.44 735.716 422.147 767.097 397.238 772.03C366.1 778.196 366.942 799.779 362.173 817.251C357.405 834.723 349.831 852.195 323.182 838.32C296.533 824.445 270.445 819.821 250.528 852.709C234.595 879.02 219.171 882 213.5 882C207.829 882 192.405 879.02 176.472 852.709C156.555 819.821 130.467 824.445 103.818 838.32C77.1694 852.195 69.5954 834.723 64.8267 817.251C60.0579 799.779 60.8995 778.196 29.7623 772.03Z" fill="#212429"/>
</svg>
