<svg width="428" height="854" viewBox="0 0 428 854" fill="none" xmlns="http://www.w3.org/2000/svg">
<g clip-path="url(#clip0_284_518)">
<path opacity="1" d="M29.832 747.521C4.86383 742.744 -0.44096 712.36 0.0276616 697.764L0.0276616 0L427.972 0L427.972 697.764C428.441 712.36 423.136 742.744 398.168 747.521C366.958 753.492 367.801 774.39 363.021 791.307C358.242 808.224 350.65 825.141 323.939 811.707C297.227 798.273 271.078 793.795 251.115 825.639C235.144 851.114 219.684 854 214 854C208.316 854 192.856 851.114 176.885 825.639C156.922 793.795 130.773 798.273 104.061 811.707C77.3501 825.141 69.7584 808.224 64.9785 791.307C60.1986 774.39 61.0421 753.492 29.832 747.521Z" fill="url(#paint0_linear_284_518)"/>
<path d="M557.741 314.747C611.082 368.088 644.337 431.385 655.002 490.583C665.667 549.783 653.736 604.833 616.784 641.784C579.833 678.736 524.783 690.667 465.583 680.002C406.385 669.337 343.088 636.082 289.747 582.741C236.406 529.4 203.151 466.103 192.486 406.905C181.821 347.705 193.752 292.655 230.704 255.704C267.655 218.752 322.705 206.821 381.905 217.486C441.103 228.151 504.4 261.406 557.741 314.747Z" stroke="black"/>
<path d="M589.741 282.747C643.082 336.088 676.337 399.385 687.002 458.583C697.667 517.783 685.736 572.833 648.784 609.784C611.833 646.736 556.783 658.667 497.583 648.002C438.385 637.337 375.088 604.082 321.747 550.741C268.406 497.4 235.151 434.103 224.486 374.905C213.821 315.705 225.752 260.655 262.704 223.704C299.655 186.752 354.705 174.821 413.905 185.486C473.103 196.151 536.4 229.406 589.741 282.747Z" stroke="black"/>
<path d="M621.741 250.747C675.082 304.088 708.337 367.385 719.002 426.583C729.667 485.783 717.736 540.833 680.784 577.784C643.833 614.736 588.783 626.667 529.583 616.002C470.385 605.337 407.088 572.082 353.747 518.741C300.406 465.4 267.151 402.103 256.486 342.905C245.821 283.705 257.752 228.655 294.704 191.704C331.655 154.752 386.705 142.821 445.905 153.486C505.103 164.151 568.4 197.406 621.741 250.747Z" stroke="black"/>
</g>
<defs>
<linearGradient id="paint0_linear_284_518" x1="214.02" y1="854.04" x2="214.02" y2="0.0293201" gradientUnits="userSpaceOnUse">
<stop stop-color="#FFDC4F"/>
<stop offset="0.25" stop-color="#FFBD3D"/>
<stop offset="0.8" stop-color="#FF7011"/>
<stop offset="1" stop-color="#FF5300"/>
</linearGradient>
<clipPath id="clip0_284_518">
<rect width="428" height="854" fill="white"/>
</clipPath>
</defs>
</svg>
