<svg width="445" height="711" viewBox="0 0 445 711" fill="none" xmlns="http://www.w3.org/2000/svg">
<path d="M130.779 261.23C148.162 257.165 166.784 256.574 181.562 242.655C194.766 230.214 202.649 209.176 211.503 190.268C220.358 171.361 232.159 152.626 247.761 149.621C263.904 146.504 280.871 161.051 296.057 152.503C313.388 142.747 317.982 109.133 333.123 93.4774C346.751 79.3862 365.135 83.0692 381.835 81.665C404.926 79.7311 427.215 65.9232 444.842 44.2074V-0.00012207C435.631 20.1883 420.958 35.2772 404.443 39.0464C390.349 42.2612 376.016 38.0733 361.766 37.1618C347.515 36.2503 331.951 39.4529 321.908 54.1723C310.82 70.4191 309.016 96.951 297.282 112.225C284.968 128.262 266.22 126.488 249.95 122.214C233.681 117.94 216.038 112.397 201.305 123.286C173.472 143.868 174.229 208.141 147.45 231.507C132.887 244.219 114.614 240.819 97.6392 241.682C60.4466 243.554 24.2782 269.433 0.0150146 310.315V356.013H21.7769C48.341 306.299 87.9458 271.231 130.772 261.217L130.779 261.23Z" fill="#FFAD00"/>
<path d="M167.23 280.801C184.538 271.107 203.784 266.525 218.287 249.699C234.816 230.521 244.525 196.328 265.203 189.836C281.227 184.811 298.566 199.087 313.892 190.625C331.78 180.746 337.057 145.703 353.779 132.203C367.013 121.524 383.312 127.251 398.454 126.919C415.22 126.561 431.579 117.496 444.842 102.616V44.2065C427.215 65.9223 404.926 79.7302 381.835 81.6641C365.135 83.0683 346.758 79.373 333.123 93.4766C317.982 109.132 313.388 142.747 296.057 152.502C280.871 161.05 263.904 146.503 247.761 149.62C232.159 152.638 220.365 171.36 211.503 190.268C202.649 209.175 194.766 230.213 181.562 242.654C166.784 256.573 148.162 257.164 130.779 261.229C87.9532 271.255 48.3484 306.311 21.7843 356.024H104.861C119.475 322.213 141.571 295.176 167.23 280.801Z" fill="#FF9300"/>
<path d="M398.446 126.932C383.305 127.253 367.006 121.525 353.772 132.217C337.05 145.717 331.765 180.772 313.885 190.638C298.566 199.101 281.22 184.825 265.195 189.85C244.517 196.341 234.809 230.523 218.28 249.713C203.784 266.539 184.538 271.121 167.222 280.815C141.564 295.189 119.468 322.226 104.854 356.038H204.608C219.438 319.837 246.039 293.6 274.985 289.129C291.886 286.518 309.217 290.657 325.82 285.385C343.819 279.682 359.294 263.497 373.797 246.991C388.3 230.486 402.781 212.97 420.075 203.781C427.89 199.63 436.485 197.524 444.835 198.103V102.63C431.572 117.497 415.213 126.575 398.446 126.932Z" fill="#FF6500"/>
<path d="M420.082 203.768C402.781 212.957 388.308 230.485 373.805 246.978C359.302 263.484 343.819 279.669 325.828 285.372C309.224 290.631 291.893 286.505 274.993 289.116C246.046 293.588 219.445 319.811 204.616 356.025H444.843V198.078C436.493 197.511 427.898 199.605 420.082 203.756V203.768Z" fill="#FF5300"/>
<path d="M149.097 214.264C144.332 220.903 136.902 224.5 130.965 220.312C127.098 217.578 124.329 210.446 126.341 204.915C128.53 198.892 134.379 198.596 138.186 194.63C144.102 188.471 144.525 174.072 151.205 169.872C154.805 167.605 159.436 169.687 161.529 174.516C164.936 182.362 160.765 186.907 158.226 192.832C155.065 200.185 153.573 208.044 149.09 214.276L149.097 214.264Z" fill="#FFAD00"/>
<path d="M108.995 228.971C116.595 229.476 119.371 211.505 111.051 210.31C102.671 209.103 99.8878 228.368 108.995 228.971Z" fill="#FFAD00"/>
<path d="M0.0074222 287.799V244.922C3.1099 241.449 6.74678 238.394 10.2946 235.98C13.8424 233.565 17.8875 232.309 21.7099 233.565C25.5324 234.822 29.0282 238.924 30.0005 244.43C31.2104 251.278 28.338 258.447 24.5007 262.807C20.6634 267.155 15.9503 269.471 11.5935 272.612C7.23665 275.753 1.69968 281.173 0 287.799H0.0074222Z" fill="#FFAD00"/>
<path d="M130.779 449.77C148.162 453.835 166.784 454.426 181.562 468.345C194.766 480.786 202.649 501.824 211.503 520.732C220.358 539.639 232.159 558.374 247.761 561.379C263.904 564.496 280.871 549.949 296.057 558.497C313.388 568.253 317.982 601.867 333.123 617.523C346.751 631.614 365.135 627.931 381.835 629.335C404.926 631.269 427.215 645.077 444.842 666.793V711C435.631 690.812 420.958 675.723 404.443 671.954C390.349 668.739 376.016 672.927 361.766 673.838C347.515 674.75 331.951 671.547 321.908 656.828C310.82 640.581 309.016 614.049 297.282 598.775C284.968 582.738 266.22 584.512 249.95 588.786C233.681 593.06 216.038 598.603 201.305 587.714C173.472 567.132 174.229 502.859 147.45 479.493C132.887 466.781 114.614 470.181 97.6392 469.318C60.4466 467.446 24.2782 441.567 0.0150146 400.685V354.987H21.7769C48.341 404.701 87.9458 439.769 130.772 449.783L130.779 449.77Z" fill="#FFAD00"/>
<path d="M167.23 430.199C184.538 439.893 203.784 444.475 218.287 461.301C234.816 480.479 244.525 514.672 265.203 521.164C281.227 526.189 298.566 511.913 313.892 520.375C331.78 530.254 337.057 565.297 353.779 578.797C367.013 589.476 383.312 583.749 398.454 584.081C415.22 584.439 431.579 593.504 444.842 608.384V666.793C427.215 645.078 404.926 631.27 381.835 629.336C365.135 627.932 346.758 631.627 333.123 617.523C317.982 601.868 313.388 568.253 296.057 558.498C280.871 549.95 263.904 564.497 247.761 561.38C232.159 558.362 220.365 539.64 211.503 520.732C202.649 501.825 194.766 480.787 181.562 468.346C166.784 454.427 148.162 453.836 130.779 449.771C87.9532 439.745 48.3484 404.689 21.7843 354.976H104.861C119.475 388.787 141.571 415.824 167.23 430.199Z" fill="#FF9300"/>
<path d="M398.446 584.068C383.305 583.747 367.006 589.475 353.772 578.784C337.05 565.284 331.765 530.228 313.885 520.362C298.566 511.899 281.22 526.175 265.195 521.15C244.517 514.659 234.809 480.478 218.28 461.287C203.784 444.461 184.538 439.879 167.222 430.185C141.564 415.811 119.468 388.774 104.854 354.962H204.608C219.438 391.163 246.039 417.4 274.985 421.871C291.886 424.482 309.217 420.343 325.82 425.615C343.819 431.318 359.294 447.504 373.797 464.009C388.3 480.514 402.781 498.03 420.075 507.219C427.89 511.37 436.485 513.476 444.835 512.897V608.37C431.572 593.503 415.213 584.425 398.446 584.068Z" fill="#FF6500"/>
<path d="M420.082 507.232C402.781 498.043 388.308 480.515 373.805 464.022C359.302 447.516 343.819 431.331 325.828 425.628C309.224 420.369 291.893 424.495 274.993 421.884C246.046 417.412 219.445 391.189 204.616 354.975H444.843V512.922C436.493 513.489 427.898 511.395 420.082 507.244V507.232Z" fill="#FF5300"/>
<path d="M149.097 496.736C144.332 490.097 136.902 486.5 130.965 490.688C127.098 493.422 124.329 500.554 126.341 506.085C128.53 512.108 134.379 512.404 138.186 516.37C144.102 522.529 144.525 536.928 151.205 541.128C154.805 543.395 159.436 541.313 161.529 536.484C164.936 528.638 160.765 524.093 158.226 518.168C155.065 510.815 153.573 502.956 149.09 496.724L149.097 496.736Z" fill="#FFAD00"/>
<path d="M108.995 482.029C116.595 481.524 119.371 499.495 111.051 500.69C102.671 501.897 99.8878 482.632 108.995 482.029Z" fill="#FFAD00"/>
<path d="M0.0074222 423.201V466.078C3.1099 469.551 6.74678 472.606 10.2946 475.02C13.8424 477.435 17.8875 478.691 21.7099 477.435C25.5324 476.178 29.0282 472.076 30.0005 466.57C31.2104 459.722 28.338 452.553 24.5007 448.193C20.6634 443.845 15.9503 441.529 11.5935 438.388C7.23665 435.247 1.69968 429.827 0 423.201H0.0074222Z" fill="#FFAD00"/>
</svg>
