<svg width="32" height="32" viewBox="0 0 32 32" fill="none" xmlns="http://www.w3.org/2000/svg">
<path d="M16 29.9929C8.28135 29.9929 2.0071 23.7187 2.0071 16C2.0071 8.28135 8.28135 2.0071 16 2.0071C16.3587 2.0071 16.6596 2.30802 16.6596 2.66667C16.6596 3.02533 16.3587 3.32625 16 3.32625C9.01199 3.32625 3.32625 9.01199 3.32625 16C3.32625 22.988 9.01199 28.6738 16 28.6738C22.988 28.6738 28.6738 22.988 28.6738 16C28.6738 15.6413 28.9747 15.3404 29.3333 15.3404C29.692 15.3404 29.9929 15.6413 29.9929 16C29.9929 23.7187 23.7187 29.9929 16 29.9929Z" fill="#F8F9FA" stroke="#FFC801" stroke-width="0.680851"/>
<path d="M17.3333 15.3262C17.1654 15.3262 17.0002 15.2654 16.8674 15.1326C16.6137 14.8789 16.6137 14.4544 16.8674 14.2007L27.8007 3.26738C28.0544 3.01366 28.4789 3.01366 28.7326 3.26738C28.9863 3.5211 28.9863 3.94556 28.7326 4.19928L17.7993 15.1326C17.6665 15.2654 17.5013 15.3262 17.3333 15.3262Z" fill="#F8F9FA" stroke="#FFC801" stroke-width="0.680851"/>
<path d="M28.6738 3.66667V3.32625H28.3333H22.8933C22.5347 3.32625 22.2338 3.02533 22.2338 2.66667C22.2338 2.30802 22.5347 2.0071 22.8933 2.0071H29.3333C29.692 2.0071 29.9929 2.30802 29.9929 2.66667V9.10667C29.9929 9.46533 29.692 9.76625 29.3333 9.76625C28.9747 9.76625 28.6738 9.46533 28.6738 9.10667V3.66667Z" fill="#F8F9FA" stroke="#FFC801" stroke-width="0.680851"/>
</svg>
