<svg width="1440" height="900" viewBox="0 0 1440 900" fill="none" xmlns="http://www.w3.org/2000/svg">
<path d="M100.369 787.786C16.3643 782.752 -1.4836 750.73 0.0930671 735.349V0H1439.91V735.349C1441.48 750.73 1423.64 782.752 1339.63 787.786C1234.62 794.078 1237.46 816.101 1221.38 833.93C1205.3 851.758 1179.76 869.587 1089.89 855.429C1000.02 841.271 912.038 836.552 844.872 870.111C791.139 896.959 739.125 900 720 900C700.875 900 648.861 896.959 595.128 870.111C527.962 836.552 439.984 841.271 350.113 855.429C260.243 869.587 234.701 851.758 218.619 833.93C202.537 816.101 205.375 794.078 100.369 787.786Z" fill="#212429"/>
</svg>
