<svg width="411" height="267" viewBox="0 0 411 267" fill="none" xmlns="http://www.w3.org/2000/svg">
<path d="M-5.38432 8.99741L1.69434 13.1934V4.80334L-5.38432 8.99741Z" fill="#E16500"/>
<path d="M-5.53283 40.0916L1.76904 44.4208V35.7643L-5.53283 40.0916Z" fill="#E1AD00"/>
<path d="M14.3424 13.405L21.7759 8.99743L14.3424 4.5918V13.405Z" fill="#E1AD00"/>
<path d="M20.5608 24.5454L28.063 28.9922V20.0986L20.5608 24.5454Z" fill="#E1AD00"/>
<path d="M14.3866 44.4208L21.6885 40.0916L14.3866 35.7643V44.4208Z" fill="#E16500"/>
<path d="M-5.32297 71.1854L1.66406 75.3265V67.0442L-5.32297 71.1854Z" fill="#E16500"/>
<path d="M40.3943 29.2626L48.3525 24.5455L40.3943 19.8284V29.2626Z" fill="#E1AD00"/>
<path d="M20.8427 55.6395L27.9214 59.8355V51.4435L20.8427 55.6395Z" fill="#E1AD00"/>
<path d="M14.5352 75.2503L21.3906 71.1855L14.5352 67.1207V75.2503Z" fill="#E1AD00"/>
<path d="M-5.19143 102.28L1.59912 106.305V98.254L-5.19143 102.28Z" fill="#E1AD00"/>
<path d="M46.3319 8.99741L54.519 13.8516V4.14514L46.3319 8.99741Z" fill="#E16500"/>
<path d="M46.6369 40.0913L54.3662 44.6733V35.5114L46.6369 40.0913Z" fill="#E1AD00"/>
<path d="M40.6442 59.9118L47.8545 55.6394L40.6442 51.365V59.9118Z" fill="#E16500"/>
<path d="M21.0356 86.7335L27.8262 90.7571V82.7079L21.0356 86.7335Z" fill="#E1AD00"/>
<path d="M14.5561 106.305L21.3467 102.28L14.5561 98.254V106.305Z" fill="#E16500"/>
<path d="M-5.66678 133.374L1.83545 137.82V128.927L-5.66678 133.374Z" fill="#E16500"/>
<path d="M66.3752 14.1532L75.0737 8.99733L66.3752 3.84338V14.1532Z" fill="#E16500"/>
<path d="M72.2194 24.5454L80.918 29.7013V19.3895L72.2194 24.5454Z" fill="#E1AD00"/>
<path d="M66.6233 44.8085L74.5796 40.0914L66.6233 35.3743V44.8085Z" fill="#E1AD00"/>
<path d="M47.1161 71.1855L54.1279 75.3424V67.0287L47.1161 71.1855Z" fill="#E16500"/>
<path d="M40.7837 90.7571L47.5742 86.7335L40.7837 82.7079V90.7571Z" fill="#E16500"/>
<path d="M20.8427 117.826L27.9214 122.022V113.632L20.8427 117.826Z" fill="#E1AD00"/>
<path d="M14.3196 137.82L21.8218 133.374L14.3196 128.927V137.82Z" fill="#E16500"/>
<path d="M-6.92019 164.468L2.46143 170.029V158.906L-6.92019 164.468Z" fill="#E1AD00"/>
<path d="M92.2955 30.2499L101.919 24.5455L92.2955 18.8411V30.2499Z" fill="#E16500"/>
<path d="M72.8659 55.6397L80.5933 60.2196V51.0577L72.8659 55.6397Z" fill="#E16500"/>
<path d="M66.8713 75.4599L74.0815 71.1855L66.8713 66.9131V75.4599Z" fill="#E1AD00"/>
<path d="M47.133 102.28L54.1182 106.421V98.1384L47.133 102.28Z" fill="#E16500"/>
<path d="M40.6442 122.1L47.8545 117.826L40.6442 113.553V122.1Z" fill="#E16500"/>
<path d="M19.9671 148.92L28.3604 153.895V143.944L19.9671 148.92Z" fill="#E16500"/>
<path d="M13.6917 170.029L23.0752 164.468L13.6917 158.906V170.029Z" fill="#E16500"/>
<path d="M-8.29377 195.562L3.14844 202.344V188.778L-8.29377 195.562Z" fill="#E1AD00"/>
<path d="M97.3134 8.99751L107.712 15.1623V2.83472L97.3134 8.99751Z" fill="#E1AD00"/>
<path d="M97.9429 40.0914L107.397 45.6959V34.4869L97.9429 40.0914Z" fill="#E1AD00"/>
<path d="M92.7054 60.6151L101.099 55.6394L92.7054 50.6637V60.6151Z" fill="#E16500"/>
<path d="M73.2993 86.7335L80.3779 90.9276V82.5375L73.2993 86.7335Z" fill="#E1AD00"/>
<path d="M66.9383 106.436L73.9502 102.28L66.9383 98.1227V106.436Z" fill="#E1AD00"/>
<path d="M46.6369 133.374L54.3662 137.956V128.792L46.6369 133.374Z" fill="#E16500"/>
<path d="M40.2489 153.895L48.644 148.92L40.2489 143.944V153.895Z" fill="#E1AD00"/>
<path d="M18.4638 180.014L29.1104 186.325V173.704L18.4638 180.014Z" fill="#E16500"/>
<path d="M12.9207 202.495L24.6167 195.562L12.9207 188.627V202.495Z" fill="#E16500"/>
<path d="M-9.68299 226.654L3.84277 234.672V218.638L-9.68299 226.654Z" fill="#E16500"/>
<path d="M-14.1991 250.72L0.173828 242.202L-14.1991 233.683V250.72Z" fill="#E16500"/>
<path d="M117.916 15.7812L129.36 8.99739L117.916 2.21558V15.7812Z" fill="#E16500"/>
<path d="M122.993 24.5453L134.214 31.1959V17.8948L122.993 24.5453Z" fill="#E16500"/>
<path d="M118.265 46.2561L128.664 40.0914L118.265 33.9266V46.2561Z" fill="#E1AD00"/>
<path d="M98.6488 71.1855L107.044 76.1612V66.2098L98.6488 71.1855Z" fill="#E1AD00"/>
<path d="M93.0031 91.1803L100.503 86.7335L93.0031 82.2867V91.1803Z" fill="#E1AD00"/>
<path d="M73.0168 117.826L80.519 122.273V113.379L73.0168 117.826Z" fill="#E16500"/>
<path d="M66.631 138.075L74.5625 133.374L66.631 128.672V138.075Z" fill="#E1AD00"/>
<path d="M45.3742 164.468L54.998 170.172V158.763L45.3742 164.468Z" fill="#E16500"/>
<path d="M39.4743 186.368L50.1953 180.014L39.4743 173.659V186.368Z" fill="#E16500"/>
<path d="M17.151 211.108L29.7686 218.587V203.629L17.151 211.108Z" fill="#E1AD00"/>
<path d="M12.2857 234.719L25.8896 226.654L12.2857 218.591V234.719Z" fill="#E1AD00"/>
<path d="M-10.4997 257.748L4.25098 266.493V249.005L-10.4997 257.748Z" fill="#E16500"/>
<path d="M143.899 31.7641L156.078 24.5454L143.899 17.3268V31.7641Z" fill="#E1AD00"/>
<path d="M123.705 55.6394L133.859 61.6572V49.6196L123.705 55.6394Z" fill="#E1AD00"/>
<path d="M118.602 76.7471L127.986 71.1857L118.602 65.6243V76.7471Z" fill="#E16500"/>
<path d="M98.9581 102.28L106.89 106.981V97.5782L98.9581 102.28Z" fill="#E16500"/>
<path d="M92.927 122.408L100.656 117.826L92.927 113.246V122.408Z" fill="#E1AD00"/>
<path d="M72.2194 148.92L80.918 154.076V143.764L72.2194 148.92Z" fill="#E16500"/>
<path d="M65.9954 170.297L75.833 164.468L65.9954 158.636V170.297Z" fill="#E16500"/>
<path d="M43.943 195.562L55.7134 202.54V188.582L43.943 195.562Z" fill="#E1AD00"/>
<path d="M38.7914 218.677L51.5615 211.108L38.7914 203.539V218.677Z" fill="#E1AD00"/>
<path d="M16.0863 242.202L30.3008 250.627V233.777L16.0863 242.202Z" fill="#E16500"/>
<path d="M11.9136 266.473L26.6338 257.748L11.9136 249.023V266.473Z" fill="#E1AD00"/>
<path d="M148.188 8.99728L160.958 16.5685V1.42798L148.188 8.99728Z" fill="#E1AD00"/>
<path d="M148.583 40.0913L160.76 47.31V32.8746L148.583 40.0913Z" fill="#E1AD00"/>
<path d="M144.254 62.2274L155.37 55.6395L144.254 49.0497V62.2274Z" fill="#E16500"/>
<path d="M124.311 86.7335L133.554 92.2107V81.2544L124.311 86.7335Z" fill="#E1AD00"/>
<path d="M118.832 107.436L127.53 102.28L118.832 97.1238V107.436Z" fill="#E1AD00"/>
<path d="M98.6488 133.374L107.044 138.349V128.398L98.6488 133.374Z" fill="#E16500"/>
<path d="M92.5263 154.215L101.459 148.92L92.5263 143.625V154.215Z" fill="#E16500"/>
<path d="M70.7043 180.014L81.6733 186.515V173.512L70.7043 180.014Z" fill="#E1AD00"/>
<path d="M65.2915 202.645L77.2432 195.562L65.2915 188.476V202.645Z" fill="#E1AD00"/>
<path d="M42.7198 226.654L56.3237 234.719V218.591L42.7198 226.654Z" fill="#E1AD00"/>
<path d="M38.3089 250.627L52.5234 242.202L38.3089 233.777V250.627Z" fill="#E1AD00"/>
<path d="M169.651 17.0623L183.255 8.9974L169.651 0.934448V17.0623Z" fill="#E1AD00"/>
<path d="M173.683 24.5454L187.552 32.767V16.3237L173.683 24.5454Z" fill="#E1AD00"/>
<path d="M169.844 47.8154L182.874 40.0914L169.844 32.3673V47.8154Z" fill="#E1AD00"/>
<path d="M149.291 71.1854L160.407 77.7753V64.5956L149.291 71.1854Z" fill="#E16500"/>
<path d="M144.565 92.769L154.746 86.7336L144.565 80.6981V92.769Z" fill="#E16500"/>
<path d="M124.426 117.826L133.499 123.205V112.449L124.426 117.826Z" fill="#E1AD00"/>
<path d="M118.753 138.669L127.687 133.374L118.753 128.079V138.669Z" fill="#E16500"/>
<path d="M97.5251 164.468L107.607 170.443V158.491L97.5251 164.468Z" fill="#E16500"/>
<path d="M91.7971 186.604L102.913 180.014L91.7971 173.424V186.604Z" fill="#E16500"/>
<path d="M69.3307 211.108L82.3623 218.832V203.384L69.3307 211.108Z" fill="#E16500"/>
<path d="M64.6792 234.829L78.4683 226.654L64.6792 218.481V234.829Z" fill="#E16500"/>
<path d="M41.9756 257.748L56.6958 266.473V249.023L41.9756 257.748Z" fill="#E1AD00"/>
<path d="M195.613 33.0823L210.015 24.5453L195.613 16.0083V33.0823Z" fill="#E16500"/>
<path d="M174.293 55.6396L187.247 63.3166V47.9606L174.293 55.6396Z" fill="#E16500"/>
<path d="M170.202 78.269L182.154 71.1855L170.202 64.1021V78.269Z" fill="#E16500"/>
<path d="M149.818 102.28L160.144 108.401V96.158L149.818 102.28Z" fill="#E1AD00"/>
<path d="M144.669 123.675L154.536 117.826L144.669 111.978V123.675Z" fill="#E16500"/>
<path d="M123.897 148.92L133.762 154.767V143.072L123.897 148.92Z" fill="#E1AD00"/>
<path d="M118.265 170.631L128.664 164.468L118.265 158.303V170.631Z" fill="#E1AD00"/>
<path d="M96.2793 195.562L108.229 202.645V188.476L96.2793 195.562Z" fill="#E1AD00"/>
<path d="M91.1848 218.785L104.138 211.108L91.1848 203.431V218.785Z" fill="#E16500"/>
<path d="M68.4169 242.202L82.8184 250.739V233.665L68.4169 242.202Z" fill="#E1AD00"/>
<path d="M64.3048 266.587L79.2139 257.748L64.3048 248.911V266.587Z" fill="#E16500"/>
<path d="M199.343 8.99729L214.063 17.7243V0.272217L199.343 8.99729Z" fill="#E1AD00"/>
<path d="M199.555 40.0915L213.956 48.6285V31.5544L199.555 40.0915Z" fill="#E1AD00"/>
<path d="M195.895 63.6749L209.452 55.6394L195.895 47.6039V63.6749Z" fill="#E16500"/>
<path d="M175.064 86.7337L186.861 93.7271V79.7404L175.064 86.7337Z" fill="#E16500"/>
<path d="M170.53 108.779L181.498 102.28L170.53 95.7798V108.779Z" fill="#E16500"/>
<path d="M149.867 133.374L160.119 139.45V127.295L149.867 133.374Z" fill="#E16500"/>
<path d="M144.46 155.143L154.958 148.92L144.46 142.696V155.143Z" fill="#E16500"/>
<path d="M122.726 180.014L134.348 186.902V173.126L122.726 180.014Z" fill="#E1AD00"/>
<path d="M117.698 202.734L129.797 195.562L117.698 188.388V202.734Z" fill="#E16500"/>
<path d="M95.2083 226.654L108.763 234.689V218.62L95.2083 226.654Z" fill="#E16500"/>
<path d="M90.7385 250.672L105.031 242.202L90.7385 233.73V250.672Z" fill="#E1AD00"/>
<path d="M221.646 17.883L236.635 8.99728L221.646 0.111572V17.883Z" fill="#E1AD00"/>
<path d="M225.391 24.5454L240.382 33.4311V15.6597L225.391 24.5454Z" fill="#E16500"/>
<path d="M221.762 48.7694L236.402 40.0914L221.762 31.4133V48.7694Z" fill="#E1AD00"/>
<path d="M200.245 71.1855L213.613 79.1093V63.2616L200.245 71.1855Z" fill="#E16500"/>
<path d="M196.336 93.9836L208.57 86.7336L196.336 79.4817V93.9836Z" fill="#E16500"/>
<path d="M175.716 117.826L186.535 124.239V111.414L175.716 117.826Z" fill="#E16500"/>
<path d="M170.654 139.656L181.251 133.374L170.654 127.092V139.656Z" fill="#E16500"/>
<path d="M149.224 164.468L160.441 171.116V157.817L149.224 164.468Z" fill="#E1AD00"/>
<path d="M144.027 187.007L155.824 180.014L144.027 173.021V187.007Z" fill="#E16500"/>
<path d="M121.89 211.108L134.765 218.74V203.476L121.89 211.108Z" fill="#E16500"/>
<path d="M117.275 234.578L130.642 226.654L117.275 218.73V234.578Z" fill="#E1AD00"/>
<path d="M94.5392 257.748L109.099 266.379V249.119L94.5392 257.748Z" fill="#E1AD00"/>
<path d="M247.81 33.5428L262.99 24.5455L247.81 15.5461V33.5428Z" fill="#E16500"/>
<path d="M225.889 55.6395L240.132 64.0805V47.1965L225.889 55.6395Z" fill="#E1AD00"/>
<path d="M222.124 79.2191L235.677 71.1855L222.124 63.152V79.2191Z" fill="#E16500"/>
<path d="M201.375 102.28L213.048 109.198V95.3606L201.375 102.28Z" fill="#E16500"/>
<path d="M196.741 124.357L207.759 117.826L196.741 111.295V124.357Z" fill="#E1AD00"/>
<path d="M175.865 148.92L186.46 155.2V142.639L175.865 148.92Z" fill="#E1AD00"/>
<path d="M170.538 170.956L181.484 164.468L170.538 157.978V170.956Z" fill="#E16500"/>
<path d="M148.497 195.562L160.803 202.855V188.267L148.497 195.562Z" fill="#E1AD00"/>
<path d="M143.744 218.601L156.387 211.108L143.744 203.615V218.601Z" fill="#E1AD00"/>
<path d="M121.438 242.202L134.99 250.236V234.168L121.438 242.202Z" fill="#E16500"/>
<path d="M117.048 266.078L131.098 257.748L117.048 249.419V266.078Z" fill="#E16500"/>
<path d="M251.492 8.99736L266.672 17.9967V0L251.492 8.99736Z" fill="#E1AD00"/>
<path d="M251.546 40.0915L266.646 49.0418V31.1411L251.546 40.0915Z" fill="#E1AD00"/>
<path d="M248.069 64.1745L262.469 55.6394L248.069 47.1044V64.1745Z" fill="#E1AD00"/>
<path d="M226.959 86.7334L239.598 94.2243V79.2405L226.959 86.7334Z" fill="#E1AD00"/>
<path d="M222.727 109.242L234.473 102.28L222.727 95.3175V109.242Z" fill="#E16500"/>
<path d="M202.224 133.374L212.623 139.538V127.209L202.224 133.374Z" fill="#E1AD00"/>
<path d="M197.028 154.939L207.183 148.92L197.028 142.902V154.939Z" fill="#E16500"/>
<path d="M175.565 180.014L186.611 186.561V173.467L175.565 180.014Z" fill="#E1AD00"/>
<path d="M170.296 202.479L181.965 195.562L170.296 188.643V202.479Z" fill="#E16500"/>
<path d="M148.327 226.654L160.887 234.1V219.208L148.327 226.654Z" fill="#E16500"/>
<path d="M143.658 249.848L156.558 242.202L143.658 234.556V249.848Z" fill="#E1AD00"/>
<path d="M274.037 17.9967L289.217 8.99736L274.037 0V17.9967Z" fill="#E1AD00"/>
<path d="M277.719 24.5455L292.899 33.5428V15.5461L277.719 24.5455Z" fill="#E16500"/>
<path d="M274.064 49.0418L289.164 40.0915L274.064 31.1411V49.0418Z" fill="#E16500"/>
<path d="M252.402 71.1854L266.216 79.3737V62.9971L252.402 71.1854Z" fill="#E16500"/>
<path d="M248.699 94.1502L261.211 86.7336L248.699 79.3152V94.1502Z" fill="#E1AD00"/>
<path d="M228.338 117.826L238.907 124.092V111.561L228.338 117.826Z" fill="#E1AD00"/>
<path d="M223.323 139.278L233.282 133.374L223.323 127.469V139.278Z" fill="#E1AD00"/>
<path d="M202.775 164.468L212.348 170.141V158.793L202.775 164.468Z" fill="#E1AD00"/>
<path d="M197.118 185.875L207.005 180.014L197.118 174.153V185.875Z" fill="#E1AD00"/>
<path d="M175.55 211.108L186.619 217.669V204.548L175.55 211.108Z" fill="#E1AD00"/>
<path d="M170.363 233.454L181.832 226.654L170.363 219.857V233.454Z" fill="#E16500"/>
<path d="M148.512 257.748L160.796 265.029V250.467L148.512 257.748Z" fill="#E1AD00"/>
<path d="M300.32 33.4467L315.337 24.5453L300.32 15.6439V33.4467Z" fill="#E1AD00"/>
<path d="M278.223 55.6395L292.649 64.1902V47.0868L278.223 55.6395Z" fill="#E16500"/>
<path d="M274.535 79.2973L288.221 71.1854L274.535 63.0735V79.2973Z" fill="#E1AD00"/>
<path d="M254.234 102.28L265.3 108.84V95.7191L254.234 102.28Z" fill="#E1AD00"/>
<path d="M249.575 123.685L259.46 117.826L249.575 111.967V123.685Z" fill="#E1AD00"/>
<path d="M229.68 148.92L238.237 153.993V143.848L229.68 148.92Z" fill="#E16500"/>
<path d="M223.845 169.441L232.235 164.468L223.845 159.494V169.441Z" fill="#E1AD00"/>
<path d="M203.202 195.562L212.134 200.855V190.267L203.202 195.562Z" fill="#E16500"/>
<path d="M197.263 216.71L206.715 211.108L197.263 205.505V216.71Z" fill="#E1AD00"/>
<path d="M176.062 242.202L186.363 248.308V236.096L176.062 242.202Z" fill="#E1AD00"/>
<path d="M170.597 264.132L181.366 257.748L170.597 251.366V264.132Z" fill="#E1AD00"/>
<path d="M304.237 8.99746L318.983 17.7402V0.256714L304.237 8.99746Z" fill="#E16500"/>
<path d="M304.344 40.0914L318.93 48.7381V31.4447L304.344 40.0914Z" fill="#E1AD00"/>
<path d="M300.621 64.0021L314.732 55.6394L300.621 47.2748V64.0021Z" fill="#E16500"/>
<path d="M279.704 86.7336L291.907 93.966V79.4993L279.704 86.7336Z" fill="#E1AD00"/>
<path d="M275.508 108.664L286.276 102.279L275.508 95.8953V108.664Z" fill="#E1AD00"/>
<path d="M256.157 133.374L264.339 138.224V128.523L256.157 133.374Z" fill="#E16500"/>
<path d="M250.488 153.155L257.632 148.92L250.488 144.685V153.155Z" fill="#E16500"/>
<path d="M230.683 180.014L237.733 184.192V175.835L230.683 180.014Z" fill="#E1AD00"/>
<path d="M224.187 199.927L231.552 195.562L224.187 191.196V199.927Z" fill="#E1AD00"/>
<path d="M203.915 226.654L211.777 231.314V221.994L203.915 226.654Z" fill="#E16500"/>
<path d="M197.647 247.121L205.946 242.202L197.647 237.281V247.121Z" fill="#E16500"/>
<path d="M326.78 17.4852L341.099 8.99719L326.78 0.511108V17.4852Z" fill="#E1AD00"/>
<path d="M331.313 24.5454L344.787 32.5319V16.5588L331.313 24.5454Z" fill="#E16500"/>
<path d="M326.938 48.2975L340.782 40.0916L326.938 31.8856V48.2975Z" fill="#E16500"/>
<path d="M305.452 71.1857L318.375 78.847V63.5262L305.452 71.1857Z" fill="#E16500"/>
<path d="M301.418 93.6798L313.137 86.7335L301.418 79.7852V93.6798Z" fill="#E16500"/>
<path d="M282.076 117.825L290.723 122.952V112.701L282.076 117.825Z" fill="#E1AD00"/>
<path d="M276.651 137.724L283.991 133.374L276.651 129.023V137.724Z" fill="#E1AD00"/>
<path d="M258.149 164.468L263.343 167.545V161.388L258.149 164.468Z" fill="#E16500"/>
<path d="M251.2 182.984L256.21 180.014L251.2 177.044V182.984Z" fill="#E1AD00"/>
<path d="M231.605 211.108L237.274 214.469V207.746L231.605 211.108Z" fill="#E1AD00"/>
<path d="M224.639 230.217L230.647 226.654L224.639 223.093V230.217Z" fill="#E16500"/>
<path d="M204.792 257.748L211.338 261.629V253.867L204.792 257.748Z" fill="#E16500"/>
<path d="M354.024 31.2273L365.294 24.5454L354.024 17.8635V31.2273Z" fill="#E16500"/>
<path d="M332.278 55.6395L344.304 62.7681V48.511L332.278 55.6395Z" fill="#E16500"/>
<path d="M327.596 78.2221L339.468 71.1856L327.596 64.1492V78.2221Z" fill="#E16500"/>
<path d="M307.799 102.28L317.203 107.855V96.7045L307.799 102.28Z" fill="#E1AD00"/>
<path d="M302.658 122.566L310.657 117.826L302.658 113.087V122.566Z" fill="#E1AD00"/>
<path d="M284.5 148.92L289.509 151.889V145.952L284.5 148.92Z" fill="#E1AD00"/>
<path d="M277.84 166.705L281.614 164.468L277.84 162.231V166.705Z" fill="#E1AD00"/>
<path d="M259.371 195.562L262.732 197.554V193.568L259.371 195.562Z" fill="#E1AD00"/>
<path d="M251.679 213.224L255.249 211.108L251.679 208.992V213.224Z" fill="#E16500"/>
<path d="M232.614 242.202L236.77 244.664V239.738L232.614 242.202Z" fill="#E16500"/>
<path d="M359.797 8.99733L369.887 14.9779V3.01868L359.797 8.99733Z" fill="#E16500"/>
<path d="M360.518 40.0915L369.526 45.4315V34.7534L360.518 40.0915Z" fill="#E1AD00"/>
<path d="M354.588 61.3165L364.167 55.6395L354.588 49.9606V61.3165Z" fill="#E16500"/>
<path d="M334.137 86.7335L343.375 92.2087V81.2563L334.137 86.7335Z" fill="#E16500"/>
<path d="M328.81 107.157L337.039 102.28L328.81 97.402V107.157Z" fill="#E16500"/>
<path d="M310.247 133.374L315.979 136.77V129.977L310.247 133.374Z" fill="#E16500"/>
<path d="M303.92 151.417L308.135 148.92L303.92 146.422V151.417Z" fill="#E1AD00"/>
<path d="M286.557 180.014L288.48 181.154V178.874L286.557 180.014Z" fill="#E1AD00"/>
<path d="M278.534 196.563L280.225 195.562L278.534 194.559V196.563Z" fill="#E1AD00"/>
<path d="M260.382 226.654L262.227 227.749V225.561L260.382 226.654Z" fill="#E1AD00"/>
<path d="M252.152 243.475L254.303 242.202L252.152 240.927V243.475Z" fill="#E16500"/>
<path d="M381.625 13.2365L388.774 8.99742L381.625 4.76025V13.2365Z" fill="#E1AD00"/>
<path d="M389.526 24.5454L394.364 27.4132V21.6775L389.526 24.5454Z" fill="#E16500"/>
<path d="M382.039 43.5961L387.95 40.0916L382.039 36.589V43.5961Z" fill="#E1AD00"/>
<path d="M361.995 71.1854L368.788 75.213V67.1598L361.995 71.1854Z" fill="#E1AD00"/>
<path d="M355.575 90.6535L362.192 86.7337L355.575 82.8119V90.6535Z" fill="#E1AD00"/>
<path d="M336.735 117.826L342.076 120.991V114.662L336.735 117.826Z" fill="#E1AD00"/>
<path d="M330.023 136.093L334.61 133.374L330.023 130.655V136.093Z" fill="#E16500"/>
<path d="M312.775 164.468L314.713 165.618V163.318L312.775 164.468Z" fill="#E16500"/>
<path d="M304.959 180.662L306.053 180.014L304.959 179.365V180.662Z" fill="#E16500"/>
<path d="M287.506 211.108L288.007 211.406V210.81L287.506 211.108Z" fill="#E16500"/>
<path d="M278.937 226.94L279.419 226.654L278.937 226.368V226.94Z" fill="#E1AD00"/>
<path d="M409.853 25.2252L411 24.5455L409.853 23.8657V25.2252Z" fill="#E1AD00"/>
<path d="M390.729 55.6394L393.761 57.4357V53.843L390.729 55.6394Z" fill="#E1AD00"/>
<path d="M382.79 73.3501L386.442 71.1855L382.79 69.0209V73.3501Z" fill="#E1AD00"/>
<path d="M364.239 102.28L367.666 104.309V100.248L364.239 102.28Z" fill="#E16500"/>
<path d="M356.706 119.736L359.929 117.826L356.706 115.918V119.736Z" fill="#E1AD00"/>
<path d="M338.907 148.92L340.99 150.156V147.686L338.907 148.92Z" fill="#E16500"/>
<path d="M331.17 165.147L332.318 164.468L331.17 163.786V165.147Z" fill="#E16500"/>
<path d="M313.973 195.562L314.114 195.644V195.478L313.973 195.562Z" fill="#E1AD00"/>
<path d="M410.206 55.6924L410.294 55.6396L410.206 55.5867V55.6924Z" fill="#E16500"/>
<path d="M392.176 86.7337L393.038 87.243V86.2224L392.176 86.7337Z" fill="#E1AD00"/>
<path d="M383.668 102.883L384.687 102.28L383.668 101.676V102.883Z" fill="#E16500"/>
<path d="M365.943 133.374L366.813 133.889V132.856L365.943 133.374Z" fill="#E1AD00"/>
<path d="M357.574 149.288L358.194 148.92L357.574 148.552V149.288Z" fill="#E1AD00"/>
</svg>
