<svg width="1449" height="944" viewBox="0 0 1449 944" fill="none" xmlns="http://www.w3.org/2000/svg">
<g clip-path="url(#clip0_143_58)">
<path opacity="1" d="M100.997 826.299C16.4666 821.019 -1.49287 787.433 0.0936488 771.299L0.0936488 0L1448.91 0V771.299C1450.49 787.433 1432.53 821.019 1348 826.299C1242.34 832.899 1245.2 856 1229.01 874.7C1212.83 893.4 1187.13 912.1 1096.7 897.25C1006.27 882.4 917.738 877.45 850.153 912.65C796.084 940.81 743.745 944 724.5 944C705.256 944 652.916 940.81 598.847 912.65C531.261 877.45 442.733 882.4 352.302 897.25C261.87 912.1 236.168 893.4 219.986 874.7C203.803 856 206.659 832.899 100.997 826.299Z" fill="url(#paint0_linear_143_58)"/>
<path d="M1277.74 317.747C1331.08 371.088 1364.34 434.385 1375 493.583C1385.67 552.783 1373.74 607.833 1336.78 644.784C1299.83 681.736 1244.78 693.667 1185.58 683.002C1126.38 672.337 1063.09 639.082 1009.75 585.741C956.406 532.4 923.151 469.103 912.486 409.905C901.821 350.705 913.752 295.655 950.704 258.704C987.655 221.752 1042.71 209.821 1101.91 220.486C1161.1 231.151 1224.4 264.406 1277.74 317.747Z" stroke="black"/>
<path d="M1309.74 285.747C1363.08 339.088 1396.34 402.385 1407 461.583C1417.67 520.783 1405.74 575.833 1368.78 612.784C1331.83 649.736 1276.78 661.667 1217.58 651.002C1158.38 640.337 1095.09 607.082 1041.75 553.741C988.406 500.4 955.151 437.103 944.486 377.905C933.821 318.705 945.752 263.655 982.704 226.704C1019.66 189.752 1074.71 177.821 1133.91 188.486C1193.1 199.151 1256.4 232.406 1309.74 285.747Z" stroke="black"/>
<path d="M1341.74 253.747C1395.08 307.088 1428.34 370.385 1439 429.583C1449.67 488.783 1437.74 543.833 1400.78 580.784C1363.83 617.736 1308.78 629.667 1249.58 619.002C1190.38 608.337 1127.09 575.082 1073.75 521.741C1020.41 468.4 987.151 405.103 976.486 345.905C965.821 286.705 977.752 231.655 1014.7 194.704C1051.66 157.752 1106.71 145.821 1165.91 156.486C1225.1 167.151 1288.4 200.406 1341.74 253.747Z" stroke="black"/>
</g>
<defs>
<linearGradient id="paint0_linear_143_58" x1="724.568" y1="944.044" x2="724.568" y2="0.0324101" gradientUnits="userSpaceOnUse">
<stop stop-color="#FFDC4F"/>
<stop offset="0.25" stop-color="#FFBD3D"/>
<stop offset="0.8" stop-color="#FF7011"/>
<stop offset="1" stop-color="#FF5300"/>
</linearGradient>
<clipPath id="clip0_143_58">
<rect width="1449" height="944" fill="white"/>
</clipPath>
</defs>
</svg>
