<svg width="39" height="9" viewBox="0 0 39 9" fill="none" xmlns="http://www.w3.org/2000/svg">
<path d="M13.3216 0.00413381C13.5629 0.316753 13.8038 0.629631 14.0453 0.942122C14.4894 1.51659 14.934 2.09081 15.3785 2.66515C15.3875 2.6769 15.3977 2.68775 15.4089 2.7008C16.1044 1.80299 16.7983 0.907114 17.5009 0C17.914 1.84303 18.3238 3.67121 18.7347 5.50417C18.5904 5.50417 18.4505 5.50417 18.3107 5.50417C18.0608 5.50417 17.8108 5.50236 17.561 5.50559C17.5092 5.50624 17.4941 5.48841 17.4836 5.44126C17.2766 4.49836 17.0679 3.55585 16.8593 2.61334C16.8584 2.6096 16.8547 2.60637 16.8465 2.595C16.793 2.66282 16.7409 2.72845 16.6893 2.79459C16.2774 3.32346 15.8654 3.85246 15.4537 4.38158C15.4074 4.44101 15.408 4.44152 15.3637 4.38468C14.9069 3.79807 14.4502 3.21146 13.9934 2.62497C13.9858 2.61515 13.9777 2.60572 13.9624 2.58712C13.924 2.75997 13.8877 2.92312 13.8515 3.08641C13.711 3.71953 13.5708 4.35265 13.4303 4.98589C13.3947 5.14686 13.3584 5.30756 13.3235 5.46865C13.3193 5.48867 13.3191 5.50469 13.2911 5.50469C12.8886 5.50404 12.4861 5.50417 12.0802 5.50417C12.1777 5.06909 12.274 4.63891 12.3703 4.20874C12.5237 3.52369 12.677 2.83851 12.8305 2.15346C12.9742 1.51233 13.1183 0.871201 13.2619 0.229943C13.2787 0.154889 13.293 0.0794467 13.3085 0.00413381C13.3131 0.00413381 13.3173 0.00413381 13.3216 0.00413381Z" fill="#F8F9FA"/>
<path d="M38.1187 0.274295C37.8513 0.513539 37.5835 0.752525 37.3164 0.992157C36.7338 1.5147 36.1514 2.03762 35.5692 2.56068C35.5261 2.59944 35.4569 2.63625 35.4505 2.68121C35.4439 2.7281 35.5175 2.76698 35.5569 2.80845C36.1148 3.39674 36.673 3.98452 37.2312 4.57256C37.5169 4.87355 37.8026 5.17467 38.0882 5.47566C38.0937 5.48148 38.0989 5.48768 38.1051 5.49465C38.0861 5.51041 38.0663 5.50266 38.0485 5.50279C37.6133 5.50331 37.1782 5.50279 36.743 5.50396C36.7062 5.50408 36.6795 5.49582 36.6531 5.46817C36.0476 4.83014 35.4409 4.19315 34.8346 3.5559C34.7873 3.50603 34.7396 3.45643 34.6938 3.40514C34.6735 3.38241 34.6594 3.37504 34.6328 3.39946C34.412 3.60072 34.1901 3.80108 33.9672 4.00015C33.9386 4.02573 33.9299 4.05208 33.9301 4.08916C33.9312 4.54091 33.9301 4.99278 33.932 5.44453C33.9323 5.49168 33.9223 5.50499 33.873 5.5046C33.5004 5.50215 33.1276 5.50189 32.755 5.50473C32.7003 5.50512 32.6944 5.48574 32.6945 5.43962C32.6955 3.73352 32.6955 2.02755 32.6941 0.321446C32.6941 0.270032 32.7083 0.258664 32.7577 0.258922C33.1283 0.260989 33.4988 0.261118 33.8694 0.258793C33.9202 0.258534 33.9323 0.271711 33.9321 0.321833C33.9304 1.06618 33.931 1.81065 33.931 2.555C33.931 2.57851 33.931 2.60202 33.931 2.6347C34.0136 2.57812 34.0777 2.51017 34.1468 2.44842C34.856 1.81259 35.5643 1.17559 36.2728 0.538988C36.364 0.457087 36.455 0.375056 36.5463 0.293284C36.567 0.274811 36.5869 0.259309 36.6192 0.259439C37.1191 0.261118 37.6188 0.261118 38.1187 0.261635C38.1187 0.265769 38.1187 0.270032 38.1187 0.274295Z" fill="#F8F9FA"/>
<path d="M0.302246 0.262221C0.752464 0.261704 1.20268 0.261704 1.6529 0.260025C1.68859 0.259895 1.70578 0.27656 1.72505 0.301621C2.14217 0.845347 2.5598 1.38856 2.97757 1.93176C2.9839 1.94003 2.99127 1.94752 3.00187 1.95954C3.11074 1.82041 3.2178 1.68386 3.32434 1.54693C3.64772 1.13161 3.97084 0.716165 4.29408 0.300717C4.31115 0.278756 4.32615 0.259637 4.36054 0.259766C4.80856 0.261187 5.25658 0.260671 5.70434 0.260671C5.71365 0.284311 5.69348 0.292578 5.6843 0.304463C5.00872 1.186 4.33274 2.06715 3.65587 2.94752C3.62807 2.98382 3.61708 3.01999 3.61721 3.06546C3.61837 3.85282 3.61695 4.64019 3.61992 5.42755C3.62018 5.49537 3.60053 5.50596 3.53872 5.50545C3.17255 5.50247 2.80624 5.50286 2.44007 5.50532C2.39042 5.5057 2.38111 5.49201 2.38124 5.44512C2.38279 4.64057 2.38214 3.8359 2.38292 3.03136C2.38292 2.99092 2.37374 2.95876 2.34827 2.92569C1.67475 2.05087 1.0024 1.17515 0.329528 0.299683C0.322158 0.289995 0.316986 0.276947 0.302246 0.275139C0.302246 0.270876 0.302246 0.266613 0.302246 0.262221Z" fill="#F8F9FA"/>
<path d="M23.4411 5.24477C22.6503 5.24477 21.8595 5.244 21.0687 5.24633C21.0105 5.24645 20.9994 5.23108 21 5.17618C21.003 4.87712 21.003 4.57794 21 4.27888C20.9995 4.22308 21.0117 4.209 21.0692 4.209C22.4138 4.21093 23.7584 4.2099 25.1029 4.21223C25.1724 4.21236 25.1866 4.19259 25.1858 4.12735C25.1824 3.81964 25.1828 3.51193 25.1857 3.20422C25.1862 3.15035 25.1722 3.13705 25.1187 3.13718C23.9594 3.13873 22.8001 3.13834 21.6408 3.13834C21.2792 3.13834 21.0021 2.86499 21.0016 2.50509C21.0008 1.88101 21.0008 1.25707 21.0016 0.632991C21.002 0.276062 21.2774 0.00168018 21.6349 0.001551C23.1066 0.00116345 24.5784 0.00180935 26.05 8.0585e-07C26.1055 -0.000128376 26.1161 0.0152442 26.1156 0.0674336C26.1129 0.368685 26.1128 0.669937 26.1157 0.971188C26.1162 1.0257 26.1019 1.03707 26.0489 1.03694C24.8035 1.03526 23.5579 1.03617 22.3125 1.0341C22.2514 1.03397 22.2408 1.05219 22.2413 1.10799C22.244 1.41997 22.2439 1.73207 22.2413 2.04404C22.2409 2.09468 22.254 2.10708 22.3045 2.10708C23.466 2.10553 24.6274 2.11122 25.7887 2.10256C26.1217 2.10011 26.4291 2.4095 26.4232 2.73646C26.4118 3.36454 26.4134 3.99313 26.4227 4.62134C26.4273 4.93345 26.1478 5.24749 25.7942 5.24581C25.0097 5.24232 24.2254 5.24477 23.4411 5.24477Z" fill="#F8F9FA"/>
<path d="M20.4434 2.88772C20.4434 3.73734 20.4426 4.5871 20.4449 5.43673C20.4451 5.49589 20.4282 5.50571 20.3738 5.50545C20.0034 5.503 19.6328 5.50313 19.2624 5.50545C19.2141 5.50571 19.2028 5.49434 19.2029 5.44603C19.2043 3.73812 19.2043 2.03021 19.2029 0.322298C19.2029 0.271401 19.2161 0.259516 19.266 0.259904C19.6364 0.2621 20.007 0.262229 20.3774 0.259775C20.4303 0.259387 20.4449 0.27153 20.4448 0.326045C20.4429 1.17981 20.4434 2.03383 20.4434 2.88772Z" fill="#F8F9FA"/>
<path d="M11.608 3.15459C11.608 2.40379 11.6011 1.65285 11.6109 0.902179C11.6156 0.547059 11.3041 0.256012 10.9678 0.257821C9.58911 0.265313 8.21026 0.265055 6.83142 0.25795C6.50559 0.256271 6.18558 0.519285 6.18596 0.900629C6.18739 2.41515 6.18687 3.92981 6.18506 5.44433C6.18493 5.49937 6.20445 5.50518 6.25074 5.50505C6.62131 5.5035 6.99188 5.50285 7.36232 5.50557C7.41598 5.50595 7.42878 5.49317 7.42852 5.43943C7.4262 4.95112 7.42801 4.46268 7.42581 3.97438C7.42555 3.9196 7.44158 3.90798 7.49421 3.90811C8.43137 3.90979 9.36852 3.90979 10.3057 3.90811C10.3591 3.90798 10.3737 3.92102 10.3734 3.97502C10.3712 4.46553 10.373 4.95603 10.3708 5.44653C10.3706 5.49601 10.384 5.5057 10.4311 5.50544C10.8017 5.50337 11.1722 5.50298 11.5427 5.5057C11.5963 5.50608 11.6093 5.49355 11.6091 5.43955C11.6073 4.67777 11.608 3.91612 11.608 3.15459ZM10.3736 2.81536C10.3738 2.86819 10.3609 2.88305 10.3067 2.88292C9.36762 2.88124 8.42839 2.88124 7.48929 2.88292C7.43654 2.88305 7.42607 2.86729 7.42633 2.81807C7.42814 2.32977 7.42827 1.84146 7.42607 1.35328C7.42581 1.30406 7.43887 1.29373 7.48645 1.29386C7.95813 1.2958 8.42994 1.29502 8.90162 1.29502C9.37124 1.29502 9.84085 1.29592 10.3103 1.29386C10.3609 1.2936 10.3737 1.30639 10.3736 1.3569C10.3715 1.84314 10.3715 2.32925 10.3736 2.81536Z" fill="#F8F9FA"/>
<path d="M29.5184 0.261776C30.2078 0.261776 30.8971 0.261647 31.5865 0.261776C31.9501 0.261776 32.2232 0.534091 32.2232 0.896187C32.2232 2.22133 32.2232 3.54661 32.2232 4.87175C32.2232 5.22881 31.948 5.50448 31.5905 5.50448C30.2074 5.50474 28.8244 5.50474 27.4413 5.50448C27.0777 5.50448 26.8049 5.23191 26.8048 4.86956C26.8047 3.54441 26.8047 2.21914 26.8048 0.893991C26.8048 0.534091 27.077 0.261905 27.4372 0.261776C28.131 0.261647 28.8247 0.261776 29.5184 0.261776Z" fill="#FFCB10"/>
<path d="M28.045 2.88192C28.045 2.37436 28.0456 1.86668 28.0439 1.35913C28.0438 1.3103 28.054 1.29479 28.1064 1.29492C29.0477 1.29673 29.9889 1.2966 30.9302 1.29518C30.9773 1.29505 30.9917 1.305 30.9917 1.35473C30.9901 2.37217 30.9901 3.38947 30.9914 4.40691C30.9914 4.45587 30.9811 4.47253 30.928 4.4724C29.9867 4.47072 29.0455 4.47072 28.1042 4.47227C28.0551 4.4724 28.0438 4.4591 28.0439 4.4113C28.0456 3.90142 28.045 3.39167 28.045 2.88192Z" fill="black"/>
<path d="M29.5921 3.72472C29.3217 3.72743 29.0621 3.68377 28.8261 3.54257C28.7418 3.49219 28.6702 3.42889 28.6294 3.3364C28.6128 3.29894 28.6069 3.27078 28.6637 3.26987C28.689 3.26948 28.7148 3.26251 28.739 3.25424C28.7971 3.2346 28.8409 3.22608 28.8832 3.29506C28.9214 3.35759 29.0033 3.37386 29.0739 3.39169C29.4393 3.48431 29.8042 3.4856 30.1658 3.37335C30.2343 3.35203 30.3065 3.32594 30.3349 3.24778C30.3435 3.22414 30.3578 3.23409 30.3706 3.23693C30.4187 3.24726 30.4663 3.26548 30.5148 3.26819C30.5798 3.27181 30.5709 3.30242 30.5523 3.34247C30.5187 3.41443 30.4662 3.47075 30.4011 3.51441C30.1821 3.66168 29.9354 3.71516 29.6762 3.72446C29.6481 3.72549 29.62 3.72472 29.5921 3.72472Z" fill="white"/>
<path d="M29.8054 2.50838C29.807 2.38152 29.9175 2.2743 30.0426 2.27844C30.1701 2.2827 30.273 2.39069 30.2709 2.5182C30.2688 2.64505 30.1596 2.75008 30.0329 2.74711C29.9045 2.74401 29.8039 2.63834 29.8054 2.50838Z" fill="white"/>
<path d="M28.7827 2.51279C28.7827 2.38322 28.8871 2.27768 29.0144 2.27832C29.14 2.27884 29.2482 2.38826 29.2477 2.51395C29.2472 2.64145 29.1398 2.74829 29.0136 2.74699C28.8837 2.74557 28.7827 2.64326 28.7827 2.51279Z" fill="white"/>
<path fill-rule="evenodd" clip-rule="evenodd" d="M38.1188 5.79102H30.1987V8.34154H38.1188V5.79102ZM30.7434 6.87695H30.6228H30.5214H30.4017V8.14941H30.663V7.7876L30.6369 7.19663L30.9811 8.14941H31.1594L31.5036 7.19663L31.4775 7.7876V8.14941H31.7397V6.87695H31.6191H31.5177H31.3971L31.0703 7.8112L30.7434 6.87695ZM32.1915 8.13194C32.2498 8.15524 32.3156 8.16689 32.3891 8.16689C32.4502 8.16689 32.5047 8.15874 32.5525 8.14242C32.6003 8.12553 32.641 8.10397 32.6748 8.07775C32.7092 8.05153 32.7363 8.02415 32.7561 7.9956L32.6338 7.86276C32.6052 7.89888 32.5711 7.92597 32.5315 7.94404C32.4925 7.96152 32.4502 7.97025 32.4048 7.97025C32.3681 7.97025 32.3352 7.96385 32.306 7.95103C32.2775 7.93821 32.253 7.92015 32.2326 7.89684C32.2128 7.87354 32.1974 7.84586 32.1863 7.81382C32.1801 7.79501 32.1758 7.7752 32.1733 7.75439H32.7771V7.64952C32.7771 7.58018 32.7681 7.51726 32.75 7.46074C32.7319 7.40365 32.7051 7.3547 32.6696 7.31392C32.6346 7.27314 32.5912 7.24167 32.5394 7.21953C32.4875 7.19739 32.4281 7.18632 32.3611 7.18632C32.2923 7.18632 32.2306 7.19827 32.1758 7.22216C32.121 7.24546 32.0744 7.27896 32.036 7.32266C31.9981 7.36636 31.969 7.41792 31.9486 7.47735C31.9282 7.53678 31.918 7.60232 31.918 7.67399V7.70894C31.918 7.77187 31.9288 7.8313 31.9503 7.88723C31.9719 7.94258 32.0028 7.99123 32.043 8.03318C32.0838 8.07513 32.1333 8.10805 32.1915 8.13194ZM32.1763 7.58659C32.1777 7.57703 32.1792 7.56771 32.1811 7.55863C32.1886 7.52308 32.1997 7.49221 32.2143 7.46599C32.2294 7.43977 32.2489 7.41938 32.2728 7.40481C32.2967 7.39025 32.3253 7.38296 32.3585 7.38296C32.3975 7.38296 32.4295 7.39112 32.4546 7.40743C32.4797 7.42375 32.4983 7.44589 32.5105 7.47385C32.5234 7.50124 32.5298 7.53241 32.5298 7.56737V7.58659H32.1763ZM33.1721 7.5257V8.14941H32.9204V7.2038H33.1573L33.1656 7.31967C33.168 7.31535 33.1705 7.3111 33.173 7.30693C33.1969 7.26848 33.226 7.23876 33.2604 7.21779C33.2948 7.19681 33.3341 7.18632 33.3784 7.18632C33.3923 7.18632 33.4066 7.18749 33.4212 7.18982C33.4358 7.19157 33.4477 7.19419 33.457 7.19769L33.4526 7.43103C33.4404 7.42928 33.4256 7.42782 33.4081 7.42666C33.3912 7.42491 33.3757 7.42404 33.3618 7.42404C33.3262 7.42404 33.2953 7.4287 33.2691 7.43802C33.2435 7.44676 33.2219 7.45987 33.2044 7.47735C33.1911 7.49112 33.1804 7.50723 33.1721 7.5257ZM34.0312 7.95278C34.0073 7.96443 33.9799 7.97025 33.9491 7.97025C33.9118 7.97025 33.8815 7.96268 33.8582 7.94753C33.8349 7.93238 33.8165 7.9117 33.8031 7.88548C33.7903 7.85926 33.7815 7.82926 33.7769 7.79547C33.7722 7.76167 33.7699 7.72642 33.7699 7.68972V7.66437C33.7699 7.62767 33.7722 7.59271 33.7769 7.5595C33.7821 7.52571 33.7912 7.4957 33.804 7.46948C33.8168 7.44268 33.8349 7.42171 33.8582 7.40656C33.8815 7.39083 33.9115 7.38296 33.9482 7.38296C33.9826 7.38296 34.0114 7.39083 34.0347 7.40656C34.0586 7.42171 34.0766 7.4421 34.0889 7.46774C34.1017 7.49337 34.1084 7.52192 34.109 7.55338H34.3458C34.3452 7.47822 34.3281 7.41326 34.2943 7.35849C34.2611 7.30314 34.215 7.26061 34.1562 7.2309C34.0979 7.20118 34.03 7.18632 33.9525 7.18632C33.8797 7.18632 33.8162 7.19856 33.762 7.22303C33.7078 7.2475 33.6627 7.28158 33.6266 7.32528C33.5904 7.3684 33.5633 7.41909 33.5453 7.47735C33.5272 7.53503 33.5182 7.59737 33.5182 7.66437V7.68972C33.5182 7.75614 33.5272 7.81848 33.5453 7.87674C33.5633 7.93442 33.5904 7.98511 33.6266 8.02881C33.6627 8.07192 33.7078 8.10572 33.762 8.13019C33.8168 8.15466 33.8809 8.16689 33.9543 8.16689C34.0271 8.16689 34.093 8.15233 34.1518 8.1232C34.2107 8.09348 34.2576 8.05299 34.2925 8.00172C34.3275 7.94986 34.3452 7.89073 34.3458 7.82431H34.109C34.1084 7.85402 34.1011 7.87995 34.0871 7.90209C34.0737 7.92364 34.0551 7.94054 34.0312 7.95278ZM34.7374 7.30871V6.80703H34.4857V8.14941H34.7374V7.473C34.7398 7.46849 34.7425 7.46411 34.7452 7.45987C34.7604 7.43598 34.7805 7.41734 34.8055 7.40394C34.8312 7.39054 34.862 7.38384 34.8982 7.38384C34.9308 7.38384 34.9582 7.38908 34.9803 7.39957C35.003 7.40947 35.0202 7.42666 35.0319 7.45113C35.0441 7.47502 35.0502 7.50794 35.0502 7.54989V8.14941H35.3037V7.55163C35.3037 7.48521 35.2961 7.4287 35.2809 7.38209C35.2658 7.33548 35.2442 7.2979 35.2163 7.26935C35.1889 7.24022 35.156 7.21924 35.1175 7.20642C35.0796 7.19302 35.0374 7.18632 34.9908 7.18632C34.9372 7.18632 34.8883 7.19769 34.844 7.22041C34.8031 7.24168 34.7675 7.27111 34.7374 7.30871ZM36.0155 8.06063C36.0065 8.07098 35.9968 8.08105 35.9862 8.09086C35.9618 8.113 35.9323 8.13135 35.898 8.14592C35.8636 8.1599 35.8228 8.16689 35.7756 8.16689C35.7156 8.16689 35.6611 8.15495 35.6122 8.13106C35.5638 8.10659 35.5254 8.07309 35.4968 8.03056C35.4688 7.98744 35.4549 7.9385 35.4549 7.88373C35.4549 7.83421 35.4642 7.79022 35.4828 7.75177C35.5015 7.71331 35.5289 7.68098 35.565 7.65476C35.6017 7.62796 35.6474 7.60786 35.7022 7.59446C35.757 7.58047 35.8205 7.57348 35.8927 7.57348H36.0055V7.51493C36.0055 7.48463 36.0005 7.4587 35.9906 7.43715C35.9807 7.41501 35.9652 7.39782 35.9443 7.38558C35.9239 7.37335 35.8974 7.36723 35.8647 7.36723C35.8368 7.36723 35.8126 7.37218 35.7922 7.38209C35.7718 7.39141 35.7561 7.4051 35.745 7.42316C35.7339 7.44064 35.7284 7.46133 35.7284 7.48521H35.4767C35.4767 7.44501 35.486 7.40685 35.5047 7.37073C35.5233 7.3346 35.5504 7.30285 35.586 7.27547C35.6215 7.2475 35.6637 7.22565 35.7127 7.20992C35.7622 7.19419 35.8176 7.18632 35.8787 7.18632C35.9521 7.18632 36.0174 7.19856 36.0745 7.22303C36.1316 7.2475 36.1765 7.28421 36.2091 7.33315C36.2423 7.38209 36.2589 7.44326 36.2589 7.51668V7.92131C36.2589 7.97317 36.2621 8.0157 36.2685 8.04891C36.2749 8.08154 36.2842 8.11009 36.2965 8.13456V8.14941H36.0422C36.0307 8.12543 36.0218 8.09583 36.0155 8.06063ZM36.0055 7.88215C36.0022 7.88812 35.9985 7.89419 35.9941 7.90034C35.9789 7.92248 35.9574 7.94112 35.9294 7.95627C35.9015 7.97142 35.8685 7.97899 35.8307 7.97899C35.8056 7.97899 35.7838 7.97433 35.7651 7.96501C35.7465 7.95511 35.7322 7.94171 35.7223 7.92481C35.7124 7.90733 35.7074 7.88781 35.7074 7.86626C35.7074 7.8447 35.7109 7.82489 35.7179 7.80683C35.7255 7.78877 35.7371 7.77303 35.7529 7.75963C35.7686 7.74565 35.7887 7.73487 35.8132 7.7273C35.8377 7.71972 35.8665 7.71594 35.8997 7.71594H36.0055V7.88215ZM36.6994 7.47862V8.14941H36.4477V7.2038H36.6836L36.6924 7.31686C36.6941 7.31469 36.6959 7.31254 36.6976 7.31042C36.7302 7.27022 36.769 7.23963 36.8139 7.21866C36.8593 7.1971 36.91 7.18632 36.9659 7.18632C37.0102 7.18632 37.0507 7.19273 37.0874 7.20555C37.1241 7.21837 37.1556 7.23876 37.1818 7.26673C37.2086 7.29469 37.229 7.33169 37.243 7.37772C37.2575 7.42375 37.2648 7.47997 37.2648 7.54639V8.14941H37.0114V7.54552C37.0114 7.50357 37.0055 7.47094 36.9939 7.44763C36.9822 7.42433 36.965 7.40802 36.9423 7.39869C36.9202 7.38879 36.8928 7.38384 36.8602 7.38384C36.8264 7.38384 36.797 7.39054 36.7719 7.40394C36.7474 7.41734 36.727 7.43598 36.7107 7.45987C36.7067 7.46585 36.7029 7.4721 36.6994 7.47862ZM37.9194 7.38209V7.2038H37.7568V6.97046H37.5051V7.2038H37.3688V7.38209H37.5051V7.88985C37.5051 7.95627 37.5162 8.00987 37.5384 8.05066C37.5605 8.09144 37.592 8.12116 37.6327 8.1398C37.6741 8.15786 37.7225 8.16689 37.7778 8.16689C37.8081 8.16689 37.8358 8.16485 37.8608 8.16078C37.8859 8.1567 37.9092 8.15116 37.9308 8.14417L37.9299 7.95889C37.9211 7.96064 37.9104 7.96239 37.8975 7.96414C37.8853 7.9653 37.8713 7.96589 37.8556 7.96589C37.8335 7.96589 37.8151 7.96326 37.8005 7.95802C37.786 7.95219 37.7749 7.942 37.7673 7.92743C37.7603 7.91287 37.7568 7.89189 37.7568 7.86451V7.38209H37.9194Z" fill="#FFC801"/>
</svg>
