<svg width="359" height="347" viewBox="0 0 359 347" fill="none" xmlns="http://www.w3.org/2000/svg">
<path d="M337.5 175C337.5 177.278 336.403 179.552 334.208 181.806C332.012 184.061 328.746 186.26 324.497 188.37C316 192.59 303.672 196.404 288.398 199.613C257.858 206.028 215.644 210 169 210C122.356 210 80.1418 206.028 49.6017 199.613C34.3276 196.404 22.0001 192.59 13.5033 188.37C9.25393 186.26 5.98843 184.061 3.79163 181.806C1.5966 179.552 0.5 177.278 0.5 175C0.5 172.722 1.5966 170.448 3.79163 168.194C5.98843 165.939 9.25393 163.74 13.5033 161.63C22.0001 157.41 34.3276 153.596 49.6017 150.387C80.1418 143.972 122.356 140 169 140C215.644 140 257.858 143.972 288.398 150.387C303.672 153.596 316 157.41 324.497 161.63C328.746 163.74 332.012 165.939 334.208 168.194C336.403 170.448 337.5 172.722 337.5 175Z" stroke="#F8F9FA"/>
<path d="M337.5 200C337.5 202.278 336.403 204.552 334.208 206.806C332.012 209.061 328.746 211.26 324.497 213.37C316 217.59 303.672 221.404 288.398 224.613C257.858 231.028 215.644 235 169 235C122.356 235 80.1418 231.028 49.6017 224.613C34.3276 221.404 22.0001 217.59 13.5033 213.37C9.25393 211.26 5.98843 209.061 3.79163 206.806C1.5966 204.552 0.5 202.278 0.5 200C0.5 197.722 1.5966 195.448 3.79163 193.194C5.98843 190.939 9.25393 188.74 13.5033 186.63C22.0001 182.41 34.3276 178.596 49.6017 175.387C80.1418 168.972 122.356 165 169 165C215.644 165 257.858 168.972 288.398 175.387C303.672 178.596 316 182.41 324.497 186.63C328.746 188.74 332.012 190.939 334.208 193.194C336.403 195.448 337.5 197.722 337.5 200Z" stroke="#F8F9FA"/>
<path d="M337.5 225C337.5 227.278 336.403 229.552 334.208 231.806C332.012 234.061 328.746 236.26 324.497 238.37C316 242.59 303.672 246.404 288.398 249.613C257.858 256.028 215.644 260 169 260C122.356 260 80.1418 256.028 49.6017 249.613C34.3276 246.404 22.0001 242.59 13.5033 238.37C9.25393 236.26 5.98843 234.061 3.79163 231.806C1.5966 229.552 0.5 227.278 0.5 225C0.5 222.722 1.5966 220.448 3.79163 218.194C5.98843 215.939 9.25393 213.74 13.5033 211.63C22.0001 207.41 34.3276 203.596 49.6017 200.387C80.1418 193.972 122.356 190 169 190C215.644 190 257.858 193.972 288.398 200.387C303.672 203.596 316 207.41 324.497 211.63C328.746 213.74 332.012 215.939 334.208 218.194C336.403 220.448 337.5 222.722 337.5 225Z" stroke="#F8F9FA"/>
<path d="M252.343 43.1293L252.511 44.0347L253.179 43.4008L300.311 -1.32301L272.341 57.323L271.945 58.1542L272.858 58.034L337.276 49.5554L280.177 80.5606L279.368 81L280.177 81.4394L337.276 112.445L272.858 103.966L271.945 103.846L272.341 104.677L300.311 163.323L253.179 118.599L252.511 117.965L252.343 118.871L240.5 182.757L228.657 118.871L228.489 117.965L227.821 118.599L180.689 163.323L208.659 104.677L209.055 103.846L208.142 103.966L143.724 112.445L200.823 81.4394L201.632 81L200.823 80.5606L143.724 49.5554L208.142 58.034L209.055 58.1542L208.659 57.323L180.689 -1.32299L227.821 43.4008L228.489 44.0347L228.657 43.1293L240.5 -20.7568L252.343 43.1293Z" stroke="#F8F9FA"/>
<path d="M277 153.5L294.789 198.56L341.11 184.374L316.972 226.377L356.944 253.747L309.055 261.063L312.578 309.379L277 276.5L241.422 309.379L244.945 261.063L197.056 253.747L237.028 226.377L212.89 184.374L259.211 198.56L277 153.5Z" fill="#FF5300"/>
<path d="M112.194 282.602L135.134 240.5L158.258 282.602L200.269 305.634L158.258 328.666L135.134 370.769L112.194 328.666L70 305.634L112.194 282.602Z" fill="#FF5300"/>
<circle cx="152.5" cy="163" r="62" fill="#212429" stroke="#F8F9FA"/>
<ellipse cx="132" cy="149.5" rx="10" ry="20" fill="white"/>
<ellipse cx="173" cy="149.5" rx="10" ry="20" fill="white"/>
</svg>
