<svg width="1461" height="887" viewBox="0 0 1461 887" fill="none" xmlns="http://www.w3.org/2000/svg">
<path d="M429.52 342.296C486.61 336.97 547.771 336.195 596.306 317.957C639.672 301.656 665.56 274.089 694.642 249.314C723.723 224.539 762.482 199.99 813.722 196.052C866.742 191.969 922.467 211.03 972.342 199.829C1029.26 187.046 1044.35 143 1094.08 122.486C1138.84 104.022 1199.22 108.848 1254.07 107.008C1329.9 104.474 1403.1 86.381 1461 57.9263V0C1430.75 26.4534 1382.56 46.2248 1328.32 51.1637C1282.03 55.3762 1234.95 49.8886 1188.15 48.6942C1141.35 47.4999 1090.23 51.6963 1057.25 70.9835C1020.83 92.2721 1014.9 127.038 976.365 147.051C935.923 168.065 874.348 165.741 820.914 160.141C767.48 154.54 709.536 147.277 661.148 161.545C569.735 188.515 572.221 272.733 484.27 303.35C436.443 320.007 376.427 315.552 320.677 316.682C198.525 319.135 79.7366 353.045 0.0488281 406.614V466.493H71.5216C158.766 401.352 288.841 355.402 429.495 342.28L429.52 342.296Z" fill="#FFAD00"/>
<path d="M549.234 367.943C606.081 355.24 669.29 349.236 716.922 327.189C771.209 302.059 803.094 257.255 871.008 248.749C923.637 242.164 980.582 260.87 1030.92 249.782C1089.67 236.838 1107 190.919 1161.92 173.23C1205.38 159.237 1258.92 166.742 1308.64 166.306C1363.71 165.838 1417.44 153.959 1461 134.462V57.9263C1403.1 86.381 1329.9 104.474 1254.07 107.008C1199.22 108.848 1138.86 104.006 1094.08 122.486C1044.35 143 1029.26 187.046 972.342 199.829C922.467 211.03 866.742 191.969 813.722 196.052C762.482 200.006 723.748 224.539 694.642 249.314C665.56 274.089 639.672 301.656 596.306 317.957C547.771 336.195 486.61 336.97 429.519 342.296C288.865 355.434 158.791 401.368 71.5459 466.509H344.396C392.394 422.205 464.963 386.778 549.234 367.943Z" fill="#FF9300"/>
<path d="M1308.62 166.322C1258.89 166.742 1205.36 159.237 1161.9 173.246C1106.98 190.936 1089.62 236.87 1030.9 249.798C980.582 260.886 923.613 242.18 870.984 248.765C803.07 257.271 771.185 302.059 716.898 327.205C669.29 349.252 606.081 355.256 549.21 367.959C464.939 386.794 392.369 422.221 344.371 466.525H671.996C720.701 419.09 808.067 384.712 903.137 378.853C958.643 375.431 1015.56 380.854 1070.09 373.946C1129.21 366.474 1180.03 345.266 1227.67 323.638C1275.3 302.011 1322.86 279.06 1379.65 267.019C1405.32 261.58 1433.55 258.82 1460.98 259.579V134.478C1417.41 153.959 1363.69 165.854 1308.62 166.322Z" fill="#FF6500"/>
<path d="M1379.68 267.003C1322.86 279.043 1275.32 302.011 1227.69 323.622C1180.06 345.249 1129.21 366.457 1070.12 373.93C1015.59 380.822 958.667 375.415 903.161 378.837C808.091 384.696 720.725 419.057 672.02 466.509H1461V259.546C1433.58 258.804 1405.35 261.548 1379.68 266.987V267.003Z" fill="#FF5300"/>
<path d="M489.681 280.754C474.031 289.454 449.63 294.167 430.129 288.679C417.428 285.096 408.336 275.751 414.942 268.504C422.133 260.612 441.342 260.224 453.847 255.027C473.276 246.957 474.665 228.09 496.604 222.586C508.427 219.616 523.638 222.344 530.512 228.671C541.701 238.952 528.002 244.908 519.665 252.671C509.28 262.306 504.38 272.604 489.657 280.771L489.681 280.754Z" fill="#FFAD00"/>
<path d="M357.973 300.025C382.935 300.687 392.052 277.139 364.726 275.573C337.204 273.992 328.063 299.235 357.973 300.025Z" fill="#FFAD00"/>
<path d="M0.0243768 377.11V320.927C10.2139 316.375 22.1585 312.372 33.8106 309.209C45.4628 306.046 58.7481 304.399 71.3022 306.046C83.8562 307.692 95.3377 313.067 98.5311 320.281C102.505 329.255 93.0707 338.648 80.4679 344.362C67.865 350.059 52.3858 353.094 38.0766 357.209C23.7674 361.325 5.58229 368.427 0 377.11H0.0243768Z" fill="#FFAD00"/>
<path d="M429.52 534.971C486.61 540.44 547.771 541.235 596.306 559.96C639.672 576.697 665.56 605 694.642 630.436C723.723 655.872 762.482 681.077 813.722 685.12C866.742 689.312 922.467 669.742 972.342 681.242C1029.26 694.367 1044.35 739.588 1094.08 760.65C1138.84 779.607 1199.22 774.652 1254.07 776.541C1329.9 779.143 1403.1 797.719 1461 826.933V886.406C1430.75 859.247 1382.56 838.947 1328.32 833.877C1282.03 829.552 1234.95 835.186 1188.15 836.412C1141.35 837.638 1090.23 833.33 1057.25 813.528C1020.83 791.671 1014.9 755.977 976.365 735.429C935.923 713.854 874.348 716.24 820.914 721.99C767.48 727.74 709.536 735.197 661.148 720.548C569.735 692.859 572.221 606.392 484.27 574.957C436.443 557.856 376.427 562.429 320.677 561.269C198.525 558.751 79.7366 523.935 0.0488281 468.936V407.459H71.5216C158.766 474.339 288.841 521.516 429.495 534.988L429.52 534.971Z" fill="#FFAD00"/>
<path d="M549.234 508.64C606.081 521.682 669.29 527.846 716.922 550.482C771.209 576.283 803.094 622.283 871.008 631.016C923.637 637.777 980.582 618.572 1030.92 629.956C1089.67 643.246 1107 690.39 1161.92 708.551C1205.38 722.918 1258.92 715.213 1308.64 715.66C1363.71 716.141 1417.44 728.337 1461 748.355V826.934C1403.1 797.719 1329.9 779.143 1254.07 776.542C1199.22 774.653 1138.86 779.624 1094.08 760.65C1044.35 739.589 1029.26 694.367 972.342 681.243C922.467 669.742 866.742 689.313 813.722 685.12C762.482 681.06 723.748 655.873 694.642 630.436C665.56 605 639.672 576.697 596.306 559.96C547.771 541.235 486.61 540.44 429.519 534.972C288.865 521.483 158.791 474.322 71.5459 407.442H344.396C392.394 452.929 464.963 489.302 549.234 508.64Z" fill="#FF9300"/>
<path d="M1308.62 715.644C1258.89 715.213 1205.36 722.918 1161.9 708.535C1106.98 690.373 1089.62 643.212 1030.9 629.939C980.582 618.555 923.613 637.761 870.984 631C803.07 622.267 771.185 576.283 716.898 550.465C669.29 527.829 606.081 521.665 549.21 508.624C464.939 489.286 392.369 452.913 344.371 407.426H671.996C720.701 456.127 808.067 491.423 903.137 497.438C958.643 500.951 1015.56 495.384 1070.09 502.476C1129.21 510.148 1180.03 531.922 1227.67 554.127C1275.3 576.332 1322.86 599.896 1379.65 612.258C1405.32 617.842 1433.55 620.676 1460.98 619.897V748.338C1417.41 728.337 1363.69 716.124 1308.62 715.644Z" fill="#FF6500"/>
<path d="M1379.68 612.275C1322.86 599.913 1275.32 576.333 1227.69 554.144C1180.06 531.939 1129.21 510.165 1070.12 502.493C1015.59 495.417 958.667 500.968 903.161 497.455C808.091 491.44 720.725 456.161 672.02 407.442H1461V619.93C1433.58 620.693 1405.35 617.876 1379.68 612.291V612.275Z" fill="#FF5300"/>
<path d="M489.681 598.156C474.031 589.225 449.63 584.386 430.129 590.02C417.428 593.699 408.336 603.293 414.942 610.734C422.133 618.837 441.342 619.234 453.847 624.57C473.276 632.856 474.665 652.227 496.604 657.878C508.427 660.927 523.638 658.126 530.512 651.63C541.701 641.075 528.002 634.96 519.665 626.99C509.28 617.097 504.38 606.525 489.657 598.14L489.681 598.156Z" fill="#FFAD00"/>
<path d="M357.973 578.371C382.935 577.691 392.052 601.868 364.726 603.476C337.204 605.1 328.063 579.183 357.973 578.371Z" fill="#FFAD00"/>
<path d="M0.0243768 499.228V556.912C10.2139 561.585 22.1585 565.694 33.8106 568.942C45.4628 572.19 58.7481 573.88 71.3022 572.19C83.8562 570.5 95.3377 564.982 98.5311 557.574C102.505 548.361 93.0707 538.717 80.4679 532.851C67.865 527.001 52.3858 523.886 38.0766 519.66C23.7674 515.435 5.58229 508.144 0 499.228H0.0243768Z" fill="#FFAD00"/>
</svg>
