<svg width="127" height="28" viewBox="0 0 127 28" fill="none" xmlns="http://www.w3.org/2000/svg">
<path d="M43.7009 0.0138757C44.5107 1.06323 45.3193 2.11345 46.13 3.16237C47.6208 5.09066 49.113 7.01809 50.6051 8.94595C50.6355 8.98541 50.6697 9.02183 50.7071 9.06563C53.0416 6.05199 55.3709 3.04486 57.7293 0C59.116 6.18641 60.4914 12.323 61.8707 18.4755C61.3863 18.4755 60.9167 18.4755 60.4475 18.4755C59.6086 18.4755 58.7697 18.4695 57.9312 18.4803C57.7571 18.4825 57.7063 18.4226 57.6712 18.2644C56.9763 15.0994 56.2759 11.9357 55.5758 8.77207C55.5728 8.75949 55.5602 8.74865 55.5328 8.71049C55.3531 8.93814 55.1782 9.15842 55.0051 9.38043C53.6223 11.1557 52.2396 12.9313 50.8577 14.7074C50.7023 14.9069 50.704 14.9086 50.5556 14.7178C49.0222 12.7488 47.4893 10.7797 45.956 8.81109C45.9304 8.77814 45.903 8.74648 45.8518 8.68404C45.7229 9.26422 45.601 9.81188 45.4794 10.36C45.0081 12.4851 44.5372 14.6103 44.0659 16.7359C43.9461 17.2762 43.8246 17.8156 43.7074 18.3563C43.693 18.4235 43.6926 18.4773 43.5984 18.4773C42.2474 18.4751 40.8963 18.4755 39.5339 18.4755C39.8612 17.0151 40.1845 15.5712 40.5079 14.1272C41.0226 11.8278 41.5373 9.52786 42.0525 7.22839C42.5347 5.07635 43.0186 2.92431 43.5003 0.771838C43.5568 0.519906 43.6049 0.266674 43.657 0.0138757C43.6722 0.0138757 43.6865 0.0138757 43.7009 0.0138757Z" fill="#F8F9FA"/>
<path d="M126.937 0.923628C126.039 1.72669 125.14 2.52888 124.243 3.33324C122.288 5.08722 120.333 6.8425 118.379 8.59821C118.234 8.7283 118.002 8.85188 117.98 9.00278C117.958 9.16018 118.205 9.2907 118.338 9.42989C120.21 11.4046 122.084 13.3775 123.957 15.3514C124.917 16.3617 125.875 17.3724 126.834 18.3828C126.853 18.4023 126.87 18.4231 126.891 18.4465C126.827 18.4994 126.761 18.4734 126.701 18.4738C125.24 18.4756 123.78 18.4738 122.319 18.4777C122.195 18.4782 122.106 18.4504 122.017 18.3576C119.985 16.216 117.948 14.0778 115.913 11.9388C115.754 11.7714 115.594 11.6049 115.44 11.4328C115.372 11.3564 115.325 11.3317 115.236 11.4137C114.494 12.0893 113.75 12.7618 113.001 13.43C112.905 13.5159 112.876 13.6043 112.877 13.7288C112.881 15.2451 112.877 16.7619 112.883 18.2783C112.884 18.4365 112.851 18.4812 112.685 18.4799C111.435 18.4717 110.183 18.4708 108.933 18.4803C108.749 18.4816 108.729 18.4166 108.729 18.2618C108.733 12.535 108.733 6.80867 108.728 1.0819C108.728 0.909319 108.776 0.871161 108.942 0.872028C110.185 0.878966 111.429 0.8794 112.673 0.871594C112.844 0.870727 112.884 0.914956 112.884 1.0832C112.878 3.5817 112.88 6.08063 112.88 8.57913C112.88 8.65805 112.88 8.73697 112.88 8.84667C113.157 8.65675 113.372 8.42867 113.604 8.2214C115.985 6.08714 118.362 3.94897 120.741 1.81211C121.047 1.5372 121.352 1.26185 121.659 0.98737C121.728 0.925363 121.795 0.873329 121.903 0.873763C123.581 0.8794 125.259 0.8794 126.937 0.881134C126.937 0.89501 126.937 0.909319 126.937 0.923628Z" fill="#F8F9FA"/>
<path d="M0 0.880311C1.51122 0.878577 3.02244 0.878577 4.53366 0.87294C4.65345 0.872506 4.71117 0.928443 4.77584 1.01256C6.17596 2.83766 7.57781 4.66102 8.98009 6.48437C9.00136 6.51212 9.0261 6.53727 9.06168 6.5776C9.42712 6.1106 9.78648 5.65226 10.1441 5.19263C11.2296 3.79855 12.3142 2.40404 13.3992 1.00953C13.4565 0.935814 13.5068 0.871639 13.6223 0.872072C15.1261 0.876842 16.6299 0.875108 18.1329 0.875108C18.1642 0.95446 18.0965 0.982211 18.0656 1.0221C15.7979 3.9811 13.5289 6.9388 11.2569 9.8939C11.1636 10.0157 11.1267 10.1372 11.1271 10.2898C11.131 12.9327 11.1263 15.5756 11.1363 18.2185C11.1371 18.4461 11.0711 18.4817 10.8637 18.4799C9.63458 18.47 8.40503 18.4713 7.17591 18.4795C7.00925 18.4808 6.978 18.4348 6.97844 18.2774C6.98365 15.5769 6.98148 12.8759 6.98408 10.1753C6.98408 10.0396 6.95327 9.93163 6.86777 9.82062C4.60701 6.88417 2.35016 3.94468 0.091576 1.00606C0.0668375 0.973539 0.0494771 0.929743 0 0.923673C0 0.909363 0 0.895054 0 0.880311Z" fill="#F8F9FA"/>
<path d="M77.3643 18.4752C74.7099 18.4752 72.0555 18.4726 69.4011 18.4804C69.2058 18.4808 69.1685 18.4292 69.1707 18.2449C69.1807 17.2411 69.1807 16.2369 69.1707 15.233C69.1689 15.0457 69.2097 14.9985 69.4029 14.9985C73.9161 15.005 78.4294 15.0015 82.9427 15.0093C83.1757 15.0097 83.2235 14.9434 83.2209 14.7244C83.2096 13.6915 83.2109 12.6587 83.2204 11.6258C83.2222 11.445 83.1753 11.4003 82.9956 11.4007C79.1043 11.4059 75.213 11.4046 71.3216 11.4046C70.1077 11.4046 69.1776 10.4871 69.1759 9.27906C69.1733 7.18426 69.1733 5.08989 69.1759 2.99509C69.1772 1.797 70.1016 0.876001 71.3017 0.875567C76.2416 0.874267 81.1819 0.876435 86.1218 0.870364C86.308 0.86993 86.3436 0.921531 86.3418 1.09671C86.3327 2.10791 86.3323 3.1191 86.3423 4.13029C86.344 4.31328 86.2958 4.35144 86.1179 4.351C81.9375 4.34537 77.7567 4.3484 73.5763 4.34146C73.371 4.34103 73.3354 4.40217 73.3372 4.58949C73.3463 5.63668 73.3459 6.6843 73.3372 7.73148C73.3359 7.90146 73.3797 7.94309 73.5494 7.94309C77.4481 7.93788 81.3464 7.95696 85.2447 7.92791C86.3622 7.91967 87.3943 8.95818 87.3743 10.0557C87.3361 12.1639 87.3414 14.2739 87.3726 16.3826C87.3882 17.4302 86.4499 18.4843 85.2629 18.4787C82.6298 18.467 79.9971 18.4752 77.3643 18.4752Z" fill="#F8F9FA"/>
<path d="M67.6066 9.69316C67.6066 12.5451 67.604 15.3974 67.6118 18.2493C67.6122 18.4479 67.5558 18.4808 67.3731 18.48C66.1296 18.4717 64.8858 18.4722 63.6423 18.48C63.4804 18.4808 63.4423 18.4427 63.4427 18.2805C63.4475 12.5477 63.4475 6.81482 63.4427 1.08197C63.4427 0.911126 63.487 0.871233 63.6545 0.872534C64.8979 0.879905 66.1418 0.880339 67.3852 0.8721C67.5627 0.870799 67.6118 0.911559 67.6114 1.09455C67.6048 3.96032 67.6066 6.82696 67.6066 9.69316Z" fill="#F8F9FA"/>
<path d="M37.9494 10.5889C37.9494 8.06875 37.9264 5.54813 37.9594 3.02839C37.975 1.83637 36.9295 0.859436 35.8006 0.865507C31.1728 0.890656 26.5445 0.889789 21.9162 0.86594C20.8225 0.860303 19.7483 1.74315 19.7496 3.02318C19.7544 8.10691 19.7527 13.1911 19.7466 18.2748C19.7462 18.4595 19.8117 18.479 19.9671 18.4786C21.2109 18.4734 22.4548 18.4712 23.6982 18.4803C23.8784 18.4816 23.9213 18.4387 23.9205 18.2583C23.9126 16.6192 23.9187 14.9797 23.9113 13.3407C23.9105 13.1568 23.9643 13.1178 24.1409 13.1182C27.2866 13.1239 30.4323 13.1239 33.578 13.1182C33.7573 13.1178 33.8063 13.1616 33.8055 13.3428C33.7981 14.9893 33.8042 16.6357 33.7968 18.2822C33.7959 18.4482 33.841 18.4808 33.999 18.4799C35.2429 18.4729 36.4868 18.4716 37.7302 18.4808C37.9103 18.4821 37.9537 18.44 37.9533 18.2587C37.9472 15.7017 37.9494 13.1451 37.9494 10.5889ZM33.8059 9.45025C33.8068 9.6276 33.7634 9.67747 33.5815 9.67703C30.4293 9.67139 27.2766 9.67139 24.1244 9.67703C23.9474 9.67747 23.9122 9.62457 23.9131 9.45936C23.9192 7.82029 23.9196 6.18121 23.9122 4.54258C23.9113 4.37737 23.9552 4.34268 24.1149 4.34311C25.6982 4.34962 27.2819 4.34702 28.8651 4.34702C30.4414 4.34702 32.0178 4.35005 33.5937 4.34311C33.7634 4.34225 33.8063 4.38517 33.8059 4.55472C33.7989 6.18685 33.7989 7.81855 33.8059 9.45025Z" fill="#F8F9FA"/>
<path d="M98.0684 0.876413C100.382 0.876413 102.696 0.87598 105.01 0.876413C106.231 0.876413 107.147 1.79048 107.147 3.00591C107.147 7.45395 107.147 11.9024 107.147 16.3505C107.147 17.549 106.224 18.4743 105.024 18.4743C100.381 18.4752 95.739 18.4752 91.0964 18.4743C89.876 18.4743 88.9602 17.5594 88.9598 16.3431C88.9594 11.895 88.9594 7.44657 88.9598 2.99853C88.9598 1.79048 89.8734 0.876847 91.0825 0.876413C93.4114 0.87598 95.7399 0.876413 98.0684 0.876413Z" fill="#FFCB10"/>
<path d="M93.1224 9.67049C93.1224 7.96681 93.1245 6.2627 93.1189 4.55902C93.1185 4.39511 93.1527 4.34307 93.3285 4.34351C96.4881 4.34958 99.6473 4.34915 102.807 4.34438C102.965 4.34394 103.013 4.37733 103.013 4.54427C103.008 7.95944 103.008 11.3742 103.013 14.7893C103.013 14.9537 102.978 15.0096 102.799 15.0092C99.6399 15.0035 96.4807 15.0035 93.3211 15.0087C93.1562 15.0092 93.1185 14.9645 93.1189 14.8041C93.1245 13.0926 93.1224 11.3815 93.1224 9.67049Z" fill="black"/>
<path d="M98.3154 12.4996C97.4079 12.5087 96.5364 12.3622 95.7443 11.8882C95.4614 11.7191 95.2209 11.5067 95.0838 11.1962C95.0282 11.0704 95.0083 10.9759 95.1992 10.9729C95.2839 10.9716 95.3707 10.9482 95.4518 10.9204C95.6467 10.8545 95.7938 10.8259 95.9357 11.0574C96.0642 11.2673 96.3389 11.3219 96.5759 11.3818C97.8024 11.6927 99.0272 11.697 100.241 11.3202C100.471 11.2487 100.713 11.1611 100.809 10.8987C100.837 10.8194 100.886 10.8528 100.929 10.8623C101.09 10.897 101.25 10.9581 101.412 10.9672C101.631 10.9794 101.601 11.0821 101.538 11.2166C101.426 11.4581 101.249 11.6471 101.031 11.7937C100.296 12.288 99.4677 12.4675 98.5975 12.4988C98.5033 12.5022 98.4092 12.4996 98.3154 12.4996Z" fill="white"/>
<path d="M99.0323 8.4192C99.0375 7.99339 99.4086 7.63349 99.8283 7.64736C100.256 7.66167 100.602 8.02417 100.595 8.45215C100.588 8.87796 100.221 9.2305 99.7957 9.22052C99.3647 9.21012 99.0271 8.85542 99.0323 8.4192Z" fill="white"/>
<path d="M95.5994 8.43449C95.5994 7.99957 95.9496 7.6453 96.3771 7.64747C96.7985 7.64921 97.1618 8.01648 97.1601 8.43839C97.1583 8.86637 96.7981 9.22497 96.3745 9.22063C95.9383 9.21586 95.5994 8.87244 95.5994 8.43449Z" fill="white"/>
<path fill-rule="evenodd" clip-rule="evenodd" d="M126.937 19.4387H100.352V27.9999H126.937V19.4387ZM102.18 21.3691H101.776H101.435H101.033V25.6403H101.911V24.4258L101.823 22.4421L102.978 25.6403H103.577L104.732 22.4421L104.645 24.4258V25.6403H105.525V21.3691H105.12H104.78H104.375L103.278 24.505L102.18 21.3691ZM107.041 25.5816C107.237 25.6599 107.458 25.699 107.704 25.699C107.91 25.699 108.093 25.6716 108.253 25.6168C108.413 25.5601 108.55 25.4878 108.664 25.3997C108.779 25.3117 108.87 25.2198 108.936 25.124L108.526 24.6781C108.43 24.7993 108.315 24.8903 108.182 24.9509C108.051 25.0096 107.91 25.0389 107.757 25.0389C107.634 25.0389 107.523 25.0174 107.426 24.9744C107.33 24.9314 107.248 24.8707 107.179 24.7925C107.113 24.7143 107.061 24.6214 107.024 24.5138C107.003 24.4507 106.988 24.3842 106.98 24.3143H109.007V23.9623C109.007 23.7296 108.976 23.5184 108.916 23.3287C108.855 23.137 108.765 22.9727 108.646 22.8358C108.529 22.6989 108.383 22.5933 108.209 22.519C108.035 22.4447 107.835 22.4075 107.61 22.4075C107.38 22.4075 107.172 22.4476 106.989 22.5278C106.805 22.606 106.648 22.7185 106.519 22.8652C106.392 23.0119 106.294 23.1849 106.226 23.3844C106.157 23.5839 106.123 23.8039 106.123 24.0445V24.1618C106.123 24.373 106.159 24.5725 106.232 24.7602C106.304 24.946 106.408 25.1093 106.543 25.2501C106.68 25.3909 106.846 25.5014 107.041 25.5816ZM106.99 23.7511C106.995 23.719 107 23.6877 107.006 23.6572C107.032 23.5379 107.069 23.4343 107.118 23.3463C107.168 23.2583 107.234 23.1898 107.314 23.1409C107.394 23.092 107.49 23.0676 107.602 23.0676C107.733 23.0676 107.84 23.095 107.924 23.1497C108.008 23.2045 108.071 23.2788 108.112 23.3727C108.155 23.4646 108.177 23.5692 108.177 23.6866V23.7511H106.99ZM110.333 23.5467V25.6403H109.488V22.4662H110.283L110.311 22.8551C110.319 22.8406 110.327 22.8264 110.336 22.8124C110.416 22.6833 110.514 22.5836 110.629 22.5132C110.744 22.4427 110.876 22.4075 111.025 22.4075C111.072 22.4075 111.12 22.4115 111.169 22.4193C111.218 22.4251 111.258 22.4339 111.289 22.4457L111.274 23.2289C111.233 23.2231 111.183 23.2182 111.125 23.2143C111.068 23.2084 111.016 23.2055 110.969 23.2055C110.85 23.2055 110.746 23.2211 110.658 23.2524C110.572 23.2817 110.5 23.3257 110.441 23.3844C110.397 23.4306 110.36 23.4847 110.333 23.5467ZM113.216 24.9802C113.136 25.0194 113.044 25.0389 112.941 25.0389C112.815 25.0389 112.714 25.0135 112.636 24.9626C112.557 24.9118 112.496 24.8424 112.451 24.7544C112.408 24.6664 112.378 24.5656 112.363 24.4522C112.347 24.3388 112.339 24.2205 112.339 24.0973V24.0122C112.339 23.889 112.347 23.7716 112.363 23.6602C112.38 23.5467 112.411 23.446 112.454 23.358C112.497 23.268 112.557 23.1976 112.636 23.1468C112.714 23.094 112.815 23.0676 112.938 23.0676C113.053 23.0676 113.15 23.094 113.228 23.1468C113.308 23.1976 113.369 23.2661 113.41 23.3521C113.453 23.4382 113.476 23.534 113.477 23.6396H114.272C114.271 23.3873 114.213 23.1693 114.099 22.9854C113.988 22.7997 113.833 22.6569 113.636 22.5572C113.44 22.4574 113.212 22.4075 112.952 22.4075C112.708 22.4075 112.495 22.4486 112.313 22.5308C112.131 22.6129 111.979 22.7273 111.858 22.874C111.737 23.0187 111.646 23.1888 111.585 23.3844C111.525 23.578 111.494 23.7873 111.494 24.0122V24.0973C111.494 24.3202 111.525 24.5295 111.585 24.725C111.646 24.9186 111.737 25.0888 111.858 25.2355C111.979 25.3802 112.131 25.4936 112.313 25.5758C112.497 25.6579 112.712 25.699 112.958 25.699C113.203 25.699 113.424 25.6501 113.621 25.5523C113.819 25.4525 113.976 25.3166 114.094 25.1445C114.211 24.9705 114.271 24.772 114.272 24.549H113.477C113.476 24.6488 113.451 24.7358 113.404 24.8101C113.359 24.8825 113.297 24.9392 113.216 24.9802ZM115.587 22.8184V21.1344H114.742V25.6403H115.587V23.3698C115.595 23.3547 115.604 23.34 115.613 23.3257C115.664 23.2456 115.731 23.183 115.816 23.138C115.902 23.093 116.005 23.0705 116.126 23.0705C116.236 23.0705 116.328 23.0881 116.402 23.1233C116.478 23.1566 116.536 23.2143 116.575 23.2964C116.616 23.3766 116.637 23.4871 116.637 23.6279V25.6403H117.488V23.6338C117.488 23.4108 117.462 23.2211 117.411 23.0647C117.361 22.9082 117.288 22.7821 117.194 22.6862C117.102 22.5884 116.992 22.518 116.863 22.475C116.736 22.43 116.594 22.4075 116.437 22.4075C116.257 22.4075 116.093 22.4457 115.945 22.522C115.807 22.5933 115.688 22.6921 115.587 22.8184ZM119.877 25.3423C119.847 25.377 119.814 25.4108 119.779 25.4437C119.697 25.5181 119.598 25.5797 119.482 25.6286C119.367 25.6755 119.23 25.699 119.072 25.699C118.87 25.699 118.687 25.6589 118.523 25.5787C118.361 25.4966 118.232 25.3841 118.136 25.2413C118.042 25.0966 117.995 24.9323 117.995 24.7485C117.995 24.5823 118.026 24.4346 118.089 24.3055C118.152 24.1765 118.243 24.0679 118.365 23.9799C118.488 23.89 118.641 23.8225 118.825 23.7775C119.009 23.7306 119.222 23.7071 119.465 23.7071H119.843V23.5106C119.843 23.4089 119.827 23.3218 119.793 23.2495C119.76 23.1752 119.708 23.1175 119.638 23.0764C119.569 23.0353 119.48 23.0148 119.371 23.0148C119.277 23.0148 119.196 23.0314 119.127 23.0647C119.059 23.0959 119.006 23.1419 118.969 23.2025C118.932 23.2612 118.913 23.3306 118.913 23.4108H118.068C118.068 23.2759 118.1 23.1478 118.162 23.0265C118.225 22.9053 118.316 22.7987 118.435 22.7068C118.554 22.6129 118.696 22.5396 118.861 22.4867C119.027 22.4339 119.213 22.4075 119.418 22.4075C119.664 22.4075 119.883 22.4486 120.075 22.5308C120.267 22.6129 120.417 22.7361 120.527 22.9004C120.638 23.0647 120.694 23.27 120.694 23.5164V24.8746C120.694 25.0487 120.705 25.1915 120.726 25.3029C120.748 25.4125 120.779 25.5083 120.82 25.5904V25.6403H119.966C119.928 25.5598 119.898 25.4604 119.877 25.3423ZM119.843 24.7432C119.832 24.7632 119.82 24.7836 119.805 24.8042C119.754 24.8786 119.682 24.9411 119.588 24.992C119.494 25.0428 119.384 25.0683 119.257 25.0683C119.172 25.0683 119.099 25.0526 119.037 25.0213C118.974 24.9881 118.926 24.9431 118.893 24.8864C118.86 24.8277 118.843 24.7622 118.843 24.6898C118.843 24.6175 118.855 24.551 118.878 24.4904C118.904 24.4297 118.943 24.3769 118.995 24.3319C119.048 24.285 119.116 24.2488 119.198 24.2234C119.28 24.198 119.377 24.1853 119.488 24.1853H119.843V24.7432ZM122.172 23.3887V25.6403H121.328V22.4662H122.12L122.149 22.8457C122.155 22.8384 122.161 22.8312 122.167 22.8241C122.276 22.6892 122.406 22.5865 122.557 22.5161C122.709 22.4437 122.879 22.4075 123.067 22.4075C123.216 22.4075 123.352 22.4291 123.475 22.4721C123.598 22.5151 123.704 22.5836 123.792 22.6774C123.882 22.7713 123.95 22.8955 123.997 23.05C124.046 23.2045 124.07 23.3932 124.07 23.6162V25.6403H123.22V23.6132C123.22 23.4724 123.2 23.3629 123.161 23.2847C123.122 23.2064 123.064 23.1517 122.988 23.1204C122.914 23.0871 122.822 23.0705 122.712 23.0705C122.599 23.0705 122.5 23.093 122.416 23.138C122.334 23.183 122.265 23.2456 122.211 23.3257C122.197 23.3458 122.184 23.3668 122.172 23.3887ZM126.268 23.0647V22.4662H125.722V21.683H124.877V22.4662H124.42V23.0647H124.877V24.769C124.877 24.992 124.914 25.1719 124.989 25.3088C125.063 25.4457 125.169 25.5454 125.305 25.608C125.444 25.6687 125.607 25.699 125.792 25.699C125.894 25.699 125.987 25.6921 126.071 25.6784C126.155 25.6647 126.233 25.6462 126.306 25.6227L126.303 25.0008C126.274 25.0067 126.237 25.0125 126.194 25.0184C126.153 25.0223 126.106 25.0243 126.054 25.0243C125.979 25.0243 125.918 25.0155 125.869 24.9979C125.82 24.9783 125.783 24.9441 125.757 24.8952C125.734 24.8463 125.722 24.7759 125.722 24.684V23.0647H126.268Z" fill="#FFC801"/>
</svg>
