<svg width="1109" height="1293" viewBox="0 0 1109 1293" fill="none" xmlns="http://www.w3.org/2000/svg">
<g opacity="0.05" filter="url(#filter0_f_54_13509)">
<path d="M416.801 1084.73C429.801 1152.75 512.498 1167.2 552.222 1165.92L1152 1165.92L1152 0.0753174L552.222 0.0752912C512.498 -1.20132 429.801 13.2506 416.801 81.2712C400.55 166.297 343.674 163.999 297.63 177.021C251.587 190.043 205.544 210.725 242.108 283.495C278.671 356.264 290.859 427.502 204.19 481.888C134.854 525.397 127 567.514 127 583C127 598.486 134.854 640.603 204.19 684.112C290.859 738.498 278.671 809.735 242.108 882.505C205.544 955.275 251.587 975.957 297.63 988.979C343.674 1002 400.55 999.703 416.801 1084.73Z" fill="black"/>
<path d="M416.801 1084.73C429.801 1152.75 512.498 1167.2 552.222 1165.92L1152 1165.92L1152 0.0753174L552.222 0.0752912C512.498 -1.20132 429.801 13.2506 416.801 81.2712C400.55 166.297 343.674 163.999 297.63 177.021C251.587 190.043 205.544 210.725 242.108 283.495C278.671 356.264 290.859 427.502 204.19 481.888C134.854 525.397 127 567.514 127 583C127 598.486 134.854 640.603 204.19 684.112C290.859 738.498 278.671 809.735 242.108 882.505C205.544 955.275 251.587 975.957 297.63 988.979C343.674 1002 400.55 999.703 416.801 1084.73Z" fill="url(#paint0_linear_54_13509)"/>
</g>
<defs>
<filter id="filter0_f_54_13509" x="0.100029" y="-126.9" width="1278.8" height="1419.8" filterUnits="userSpaceOnUse" color-interpolation-filters="sRGB">
<feFlood flood-opacity="0" result="BackgroundImageFix"/>
<feBlend mode="normal" in="SourceGraphic" in2="BackgroundImageFix" result="shape"/>
<feGaussianBlur stdDeviation="63.45" result="effect1_foregroundBlur_54_13509"/>
</filter>
<linearGradient id="paint0_linear_54_13509" x1="228.332" y1="1566.48" x2="282.776" y2="235.431" gradientUnits="userSpaceOnUse">
<stop stop-color="#CDAA2A"/>
<stop offset="0.505208" stop-color="#FFC800"/>
<stop offset="1" stop-color="#FFCB10"/>
</linearGradient>
</defs>
</svg>
